<svg xmlns="http://www.w3.org/2000/svg" viewBox="0 0 545.73 545.66"><defs><style>.cls-1{fill:#caddff;}.cls-2{fill:#99b9ff;}.cls-3{fill:#fff;}.cls-4{fill:#5479f7;}</style></defs><title>Ativo 1</title><g id="Camada_2" data-name="Camada 2"><g id="Camada_1-2" data-name="Camada 1"><path class="cls-1" d="M138.62,495.73C1.8,410.24,0,256.59,0,249.55c.48-77,35.83-188.21,131.37-230.82C176.64-1.46,248.2-11.92,299.23,22.09c47.64,31.75,27,68.7,79.56,132.12,60.54,73,109.23,63.16,149.82,127,26.81,42.12,15,93.12,11.59,107.74-24.87,107.23-155.39,144.08-170,148C254,567.8,158.29,508,138.62,495.73"/><path class="cls-2" d="M9.5,315.11c13.73,53.95,47.27,129.48,129.12,180.62C158.29,508,254,567.8,370.16,536.89c14.65-3.9,145.17-40.75,170-148L9.5,315.11"/><path d="M409.85,532.34a3.58,3.58,0,0,0-.72.07,3.51,3.51,0,0,0-2.28,1.53,3.42,3.42,0,0,0-.48,2.62,3.64,3.64,0,0,0,4.29,2.75,3.51,3.51,0,0,0,2.27-1.53,3.4,3.4,0,0,0,.48-2.61A3.63,3.63,0,0,0,409.85,532.34Zm.08,9a5.61,5.61,0,0,1-5.49-4.38,5.4,5.4,0,0,1,.76-4.12,5.52,5.52,0,0,1,3.53-2.39,5.64,5.64,0,0,1,6.61,4.27,5.35,5.35,0,0,1-.76,4.12,5.47,5.47,0,0,1-3.53,2.39,6.16,6.16,0,0,1-1.12.11"/><path d="M439.53,519a1,1,0,0,1-.94-.67,1,1,0,0,1,.61-1.25c.47-.17,47.74-17,88.23-70.13a1,1,0,1,1,1.57,1.19c-40.87,53.62-88.67,70.64-89.16,70.8a.85.85,0,0,1-.31.06"/><path d="M426.1,533.62a1,1,0,0,1-.18-2c.45-.08,45.47-9,91.92-58.86a1,1,0,1,1,1.44,1.34c-24.5,26.3-48.45,41.05-64.23,48.8-17.13,8.42-28.29,10.57-28.76,10.66l-.19,0"/><path class="cls-2" d="M412.92,225.43,333.68,213.6c-.51,0-.68.48-.68.94V282c0,6.46-45,23.27-45.46,22.42l-.06,7.14c0,1.33,1.11,2.23,2.66,2.51l67.44,12.32a23.16,23.16,0,0,0,8.92-1.86L403,309.15c6.57-2.78,10.72-8.73,10.72-15.23V226.36a.88.88,0,0,0-.83-.93"/><path class="cls-3" d="M325,209.68v67.51c0,6.65-4.27,12.72-11,15.6l-24.64,10.54c-1.61.68-1.23,2.54.73,2.85l67.7,12.31a22.7,22.7,0,0,0,8.8-1.76l27.3-11.52c6.78-2.86,11.09-8.95,11.09-15.64V222a.53.53,0,0,0-.56-.5l-78.85-12.31a.54.54,0,0,0-.57.5"/><path d="M353.88,318.77h-.19l-63.81-11.62a2.77,2.77,0,0,1-2.52-2.25,2.4,2.4,0,0,1,1.59-2.47l24.64-10.54c6.32-2.7,10.4-8.47,10.4-14.69V263a1,1,0,0,1,2,0v14.16c0,7-4.55,13.49-11.59,16.5l-24.65,10.54c-.21.1-.42.25-.4.42s.27.45.89.55l63.84,11.62a1,1,0,0,1-.17,1.95"/><path class="cls-4" d="M536.09,279.46l-8.84,8.27-320.11-56c-4.42-.76-7.59-3.9-7.51-8.39L203,18.66,213.62,13A9.78,9.78,0,0,1,220,12L531.06,68a9.84,9.84,0,0,1,8.07,9.67l.06,194.63a9.8,9.8,0,0,1-3.1,7.16"/><path class="cls-2" d="M520.13,288.81,206.34,231.6c-3.9-.7-6.68-3.47-6.68-7.43V26.68a8.2,8.2,0,0,1,9.64-8.08L523,75.18a8.18,8.18,0,0,1,6.73,8.06V280.73a8.19,8.19,0,0,1-9.64,8.08"/><path class="cls-3" d="M518.24,74.49,210.57,19c-8.72-1.56-11.95,4.53-12,9.54V223.11c0,5,3.58,8.27,10.33,9.48l306.63,55.57c6.75,1.21,12.25-1.86,12.28-6.87l1.34-195.54c0-5,.61-9-10.92-11.26"/><path d="M476.29,281.82h-.16L416.2,271.57a1,1,0,0,1-.8-1.14,1,1,0,0,1,1.14-.81l59.92,10.24a1,1,0,0,1-.17,2"/><path d="M521.12,290a10.09,10.09,0,0,1-1.64-.14L247.75,240.5a1,1,0,1,1,.35-1.94l271.73,49.37a7.13,7.13,0,0,0,5.89-1.56,7.21,7.21,0,0,0,2.6-5.54V83.34a7.21,7.21,0,0,0-5.93-7.1L208.66,19.67a7.22,7.22,0,0,0-8.49,7.1l-.6,169.65a1,1,0,0,1-1,1h0a1,1,0,0,1-1-1l.61-169.64a9.19,9.19,0,0,1,10.81-9L522.75,74.3a9.17,9.17,0,0,1,7.54,9V280.83a9.18,9.18,0,0,1-9.17,9.19"/><path class="cls-1" d="M244.65,92.19l-34-6.14a3.89,3.89,0,0,1-3.06-3.64L207.71,49a2.17,2.17,0,0,1,2.71-2.21l34,6.14a3.89,3.89,0,0,1,3.06,3.64L247.35,90a2.17,2.17,0,0,1-2.7,2.22"/><path class="cls-1" d="M290.24,100.44l-34-6.15a3.91,3.91,0,0,1-3.07-3.63l.09-33.45A2.17,2.17,0,0,1,256,55l34,6.14A3.91,3.91,0,0,1,293,64.77l-.09,33.45a2.17,2.17,0,0,1-2.7,2.22"/><path class="cls-1" d="M335.82,108.68l-33.95-6.14a3.89,3.89,0,0,1-3.07-3.64l.08-33.45a2.17,2.17,0,0,1,2.7-2.21l34,6.14A3.92,3.92,0,0,1,338.62,73l-.09,33.44a2.19,2.19,0,0,1-2.71,2.22"/><path class="cls-1" d="M381.41,116.93l-34-6.15a3.89,3.89,0,0,1-3.06-3.64l.08-33.44a2.18,2.18,0,0,1,2.7-2.22l34,6.14a3.92,3.92,0,0,1,3.07,3.64l-.08,33.45a2.19,2.19,0,0,1-2.71,2.22"/><path class="cls-1" d="M427,125.17,393,119a3.87,3.87,0,0,1-3.07-3.63l.08-33.45a2.18,2.18,0,0,1,2.71-2.21l34,6.14a3.9,3.9,0,0,1,3.07,3.64L429.7,123a2.18,2.18,0,0,1-2.7,2.22"/><path class="cls-1" d="M244.43,137.85l-34-6.14a3.91,3.91,0,0,1-3.06-3.64l.09-33.45a2.16,2.16,0,0,1,2.7-2.21l34,6.14a3.89,3.89,0,0,1,3.06,3.64l-.08,33.44a2.18,2.18,0,0,1-2.71,2.22"/><path class="cls-1" d="M290,146.09l-34-6.14a3.89,3.89,0,0,1-3.06-3.63l.08-33.45a2.18,2.18,0,0,1,2.7-2.22l34,6.15a3.88,3.88,0,0,1,3.06,3.63l-.09,33.45a2.16,2.16,0,0,1-2.7,2.21"/><path class="cls-1" d="M335.61,154.34l-34-6.14a3.9,3.9,0,0,1-3.07-3.64l.09-33.45a2.16,2.16,0,0,1,2.7-2.21l34,6.14a3.9,3.9,0,0,1,3.07,3.64l-.09,33.44a2.17,2.17,0,0,1-2.7,2.22"/><path class="cls-1" d="M381.19,162.58l-34-6.14a3.89,3.89,0,0,1-3.06-3.63l.08-33.45a2.19,2.19,0,0,1,2.71-2.22l34,6.15a3.9,3.9,0,0,1,3.06,3.64l-.08,33.44a2.17,2.17,0,0,1-2.71,2.21"/><path class="cls-1" d="M426.78,170.83l-34-6.14a3.92,3.92,0,0,1-3.07-3.64l.08-33.45a2.18,2.18,0,0,1,2.71-2.21l34,6.14a3.91,3.91,0,0,1,3.06,3.64l-.09,33.44a2.17,2.17,0,0,1-2.7,2.22"/><path class="cls-1" d="M244.22,183.51l-34-6.14a3.9,3.9,0,0,1-3.07-3.64l.09-33.44a2.17,2.17,0,0,1,2.7-2.22l34,6.14a3.92,3.92,0,0,1,3.07,3.64l-.09,33.45a2.17,2.17,0,0,1-2.7,2.21"/><path class="cls-1" d="M289.8,191.76l-34-6.15a3.89,3.89,0,0,1-3.06-3.64l.08-33.44a2.18,2.18,0,0,1,2.71-2.21l34,6.14a3.89,3.89,0,0,1,3.06,3.63l-.08,33.45a2.18,2.18,0,0,1-2.71,2.22"/><path class="cls-1" d="M335.39,200l-34-6.14a3.88,3.88,0,0,1-3.06-3.64l.08-33.45a2.17,2.17,0,0,1,2.7-2.21l34,6.14a3.91,3.91,0,0,1,3.06,3.64l-.09,33.44a2.17,2.17,0,0,1-2.7,2.22"/><path class="cls-1" d="M383.67,208.73l-39.73-7.18.1-39.23,39.74,7.18-.11,39.23"/><path class="cls-1" d="M426.56,216.49l-34-6.14a3.89,3.89,0,0,1-3.06-3.64l.08-33.45a2.17,2.17,0,0,1,2.7-2.21l34,6.14a3.91,3.91,0,0,1,3.06,3.64l-.08,33.44a2.18,2.18,0,0,1-2.71,2.22"/><path class="cls-1" d="M244,229.17,210,223a3.92,3.92,0,0,1-3.07-3.64l.09-33.44a2.18,2.18,0,0,1,2.71-2.22l33.95,6.14a3.9,3.9,0,0,1,3.07,3.64L246.7,227a2.16,2.16,0,0,1-2.7,2.21"/><path class="cls-1" d="M289.59,237.42l-34-6.15a3.88,3.88,0,0,1-3.07-3.64l.09-33.44a2.17,2.17,0,0,1,2.7-2.22l34,6.15a3.91,3.91,0,0,1,3.07,3.63l-.09,33.45a2.18,2.18,0,0,1-2.7,2.22"/><path class="cls-1" d="M335.17,245.66l-34-6.14a3.89,3.89,0,0,1-3.06-3.64l.08-33.44a2.18,2.18,0,0,1,2.71-2.22l34,6.14A3.91,3.91,0,0,1,338,210l-.08,33.45a2.17,2.17,0,0,1-2.71,2.21"/><path class="cls-1" d="M383.45,254.39l-39.73-7.18.1-39.23,39.74,7.19-.11,39.22"/><path class="cls-1" d="M426.34,262.16l-34-6.15a3.89,3.89,0,0,1-3.06-3.64l.08-33.44a2.18,2.18,0,0,1,2.71-2.22l34,6.14a3.9,3.9,0,0,1,3.06,3.64l-.08,33.45a2.18,2.18,0,0,1-2.71,2.22"/><path class="cls-2" d="M472.54,133.41l-34-6.15a3.89,3.89,0,0,1-3.06-3.63l.09-33.45A2.16,2.16,0,0,1,438.3,88l34,6.14a3.91,3.91,0,0,1,3.07,3.63l-.09,33.45a2.18,2.18,0,0,1-2.7,2.22"/><path class="cls-2" d="M518.13,141.65l-34-6.14a3.92,3.92,0,0,1-3.07-3.64l.09-33.44a2.18,2.18,0,0,1,2.71-2.22l34,6.14a3.9,3.9,0,0,1,3.06,3.64l-.08,33.44a2.17,2.17,0,0,1-2.7,2.22"/><path class="cls-2" d="M472.32,179.07l-34-6.14a3.91,3.91,0,0,1-3.07-3.64l.09-33.45a2.18,2.18,0,0,1,2.7-2.22l34,6.14a3.91,3.91,0,0,1,3.07,3.65L475,176.85a2.19,2.19,0,0,1-2.71,2.22"/><path class="cls-2" d="M517.91,187.31l-34-6.14a3.9,3.9,0,0,1-3.07-3.64l.08-33.45a2.18,2.18,0,0,1,2.71-2.21l34,6.14a3.9,3.9,0,0,1,3.07,3.64l-.09,33.45a2.18,2.18,0,0,1-2.7,2.21"/><path class="cls-3" d="M389.58,170.55l39.73,7.19-39.73-7.19"/><path class="cls-2" d="M472.1,224.73l-34-6.14a3.92,3.92,0,0,1-3.08-3.64l.09-33.45a2.17,2.17,0,0,1,2.71-2.21l33.95,6.14a3.91,3.91,0,0,1,3.08,3.64l-.09,33.44a2.19,2.19,0,0,1-2.71,2.22"/><path class="cls-2" d="M517.69,233l-34-6.14a3.9,3.9,0,0,1-3.07-3.64l.09-33.44a2.17,2.17,0,0,1,2.7-2.22l34,6.15a3.88,3.88,0,0,1,3.07,3.63l-.08,33.44a2.18,2.18,0,0,1-2.71,2.22"/><path class="cls-2" d="M471.89,270.39l-34-6.15a3.88,3.88,0,0,1-3.07-3.63l.08-33.45a2.18,2.18,0,0,1,2.71-2.21l34,6.14a3.9,3.9,0,0,1,3.07,3.64l-.09,33.44a2.18,2.18,0,0,1-2.7,2.22"/><path class="cls-2" d="M517.47,278.63l-34-6.14a3.89,3.89,0,0,1-3.06-3.64l.08-33.44a2.18,2.18,0,0,1,2.7-2.22l34,6.14a3.9,3.9,0,0,1,3.06,3.64l-.08,33.45a2.18,2.18,0,0,1-2.71,2.21"/><path class="cls-2" d="M425.88,145.93l-31.94-5.71c-2.27-.4-4.19-3.29-4.19-6.3,0-2.74,1.62-4.59,3.69-4.22l31.94,5.71c2.28.41,4.19,3.3,4.19,6.3,0,2.75-1.62,4.59-3.69,4.22"/><path class="cls-2" d="M380.29,137.37l-31.94-5.7c-2.27-.41-4.19-3.3-4.18-6.31,0-2.74,1.62-4.59,3.68-4.22l31.95,5.71c2.27.4,4.19,3.3,4.18,6.31,0,2.74-1.62,4.58-3.69,4.21"/><path class="cls-2" d="M334.7,128.81l-31.94-5.71c-2.28-.4-4.19-3.29-4.19-6.3,0-2.74,1.62-4.59,3.7-4.22l31.93,5.71c2.27.41,4.2,3.3,4.19,6.31,0,2.74-1.62,4.58-3.69,4.21"/><path class="cls-2" d="M289.11,120.25l-31.94-5.7c-2.27-.41-4.19-3.3-4.19-6.31,0-2.74,1.62-4.58,3.7-4.22l31.94,5.71c2.27.41,4.19,3.29,4.19,6.31,0,2.73-1.63,4.58-3.7,4.21"/><path class="cls-2" d="M335,83l-31.94-5.7c-2.27-.4-4.19-3.3-4.19-6.3,0-2.75,1.63-4.59,3.69-4.21l31.95,5.7c2.27.41,4.19,3.3,4.18,6.31,0,2.74-1.62,4.58-3.69,4.2"/><path class="cls-2" d="M289.41,74.47l-32-5.71c-2.27-.41-4.19-3.29-4.18-6.3,0-2.74,1.62-4.59,3.69-4.22L288.91,64c2.27.4,4.19,3.29,4.19,6.3,0,2.74-1.62,4.59-3.69,4.22"/><path class="cls-2" d="M243.82,65.91,211.88,60.2c-2.27-.4-4.19-3.29-4.19-6.3,0-2.74,1.62-4.59,3.7-4.22l31.93,5.71c2.28.41,4.2,3.3,4.19,6.3,0,2.74-1.62,4.59-3.69,4.22"/><path class="cls-3" d="M242.47,60.54a2.77,2.77,0,0,1-3.45,2.8,4.35,4.35,0,0,1-3.44-4.09,2.77,2.77,0,0,1,3.44-2.8,4.35,4.35,0,0,1,3.45,4.09"/><path class="cls-3" d="M288.79,69.24a2.78,2.78,0,0,1-3.45,2.8A4.35,4.35,0,0,1,281.9,68a2.79,2.79,0,0,1,3.44-2.81,4.36,4.36,0,0,1,3.45,4.1"/><path class="cls-3" d="M334.21,77.77a2.77,2.77,0,0,1-3.44,2.8,4.36,4.36,0,0,1-3.45-4.1,2.78,2.78,0,0,1,3.45-2.79,4.34,4.34,0,0,1,3.44,4.09"/><path class="cls-3" d="M380.54,86.47a2.78,2.78,0,0,1-3.45,2.79,4.34,4.34,0,0,1-3.44-4.09,2.77,2.77,0,0,1,3.44-2.8,4.36,4.36,0,0,1,3.45,4.1"/><path class="cls-3" d="M425.48,94.91A2.78,2.78,0,0,1,422,97.7a4.34,4.34,0,0,1-3.44-4.09,2.78,2.78,0,0,1,3.44-2.8,4.36,4.36,0,0,1,3.45,4.1"/><path class="cls-3" d="M470.91,103.44a2.78,2.78,0,0,1-3.45,2.79,4.35,4.35,0,0,1-3.44-4.09,2.77,2.77,0,0,1,3.44-2.8,4.37,4.37,0,0,1,3.45,4.1"/><path class="cls-3" d="M517.22,112.13a2.77,2.77,0,0,1-3.44,2.8,4.36,4.36,0,0,1-3.45-4.09,2.79,2.79,0,0,1,3.45-2.8,4.34,4.34,0,0,1,3.44,4.09"/><path class="cls-3" d="M242.47,106.19A2.78,2.78,0,0,1,239,109a4.35,4.35,0,0,1-3.44-4.1A2.77,2.77,0,0,1,239,102.1a4.35,4.35,0,0,1,3.45,4.09"/><path class="cls-3" d="M288.79,114.89a2.78,2.78,0,0,1-3.45,2.8,4.36,4.36,0,0,1-3.44-4.1,2.77,2.77,0,0,1,3.44-2.79,4.34,4.34,0,0,1,3.45,4.09"/><path class="cls-3" d="M334.21,123.42a2.77,2.77,0,0,1-3.44,2.79,4.35,4.35,0,0,1-3.45-4.09,2.78,2.78,0,0,1,3.45-2.79,4.33,4.33,0,0,1,3.44,4.09"/><path class="cls-3" d="M380.54,132.11a2.79,2.79,0,0,1-3.45,2.81,4.36,4.36,0,0,1-3.44-4.1,2.78,2.78,0,0,1,3.44-2.8,4.36,4.36,0,0,1,3.45,4.09"/><path class="cls-3" d="M425.48,140.56a2.78,2.78,0,0,1-3.45,2.79,4.34,4.34,0,0,1-3.44-4.09,2.78,2.78,0,0,1,3.44-2.8,4.36,4.36,0,0,1,3.45,4.1"/><path class="cls-3" d="M470.91,149.08a2.78,2.78,0,0,1-3.45,2.8,4.35,4.35,0,0,1-3.44-4.09,2.77,2.77,0,0,1,3.44-2.8,4.36,4.36,0,0,1,3.45,4.09"/><path class="cls-3" d="M517.22,157.78a2.77,2.77,0,0,1-3.44,2.8,4.36,4.36,0,0,1-3.45-4.1,2.78,2.78,0,0,1,3.45-2.79,4.35,4.35,0,0,1,3.44,4.09"/><path class="cls-3" d="M242.47,152.38a2.79,2.79,0,0,1-3.45,2.81,4.36,4.36,0,0,1-3.44-4.1A2.77,2.77,0,0,1,239,148.3a4.33,4.33,0,0,1,3.45,4.08"/><path class="cls-3" d="M288.79,161.08a2.78,2.78,0,0,1-3.45,2.8,4.35,4.35,0,0,1-3.44-4.09,2.77,2.77,0,0,1,3.44-2.8,4.35,4.35,0,0,1,3.45,4.09"/><path class="cls-3" d="M334.21,169.61a2.77,2.77,0,0,1-3.44,2.8,4.36,4.36,0,0,1-3.45-4.09,2.78,2.78,0,0,1,3.45-2.8,4.35,4.35,0,0,1,3.44,4.09"/><path class="cls-3" d="M380.54,178.31a2.78,2.78,0,0,1-3.45,2.8,4.35,4.35,0,0,1-3.44-4.09,2.77,2.77,0,0,1,3.44-2.8,4.36,4.36,0,0,1,3.45,4.09"/><path class="cls-3" d="M425.48,186.75a2.78,2.78,0,0,1-3.45,2.8,4.35,4.35,0,0,1-3.44-4.09,2.77,2.77,0,0,1,3.44-2.8,4.35,4.35,0,0,1,3.45,4.09"/><path class="cls-3" d="M470.91,195.28a2.78,2.78,0,0,1-3.45,2.8A4.35,4.35,0,0,1,464,194a2.77,2.77,0,0,1,3.44-2.79,4.35,4.35,0,0,1,3.45,4.09"/><path class="cls-3" d="M517.22,204a2.77,2.77,0,0,1-3.44,2.8,4.35,4.35,0,0,1-3.45-4.09,2.78,2.78,0,0,1,3.45-2.8,4.35,4.35,0,0,1,3.44,4.09"/><path class="cls-3" d="M242.47,198a2.77,2.77,0,0,1-3.45,2.79,4.35,4.35,0,0,1-3.44-4.09,2.77,2.77,0,0,1,3.44-2.8,4.35,4.35,0,0,1,3.45,4.1"/><path class="cls-3" d="M288.79,206.73a2.78,2.78,0,0,1-3.45,2.8,4.34,4.34,0,0,1-3.44-4.09,2.77,2.77,0,0,1,3.44-2.8,4.35,4.35,0,0,1,3.45,4.09"/><path class="cls-3" d="M334.21,215.26a2.77,2.77,0,0,1-3.44,2.8,4.36,4.36,0,0,1-3.45-4.09,2.78,2.78,0,0,1,3.45-2.8,4.35,4.35,0,0,1,3.44,4.09"/><path class="cls-3" d="M380.54,224a2.79,2.79,0,0,1-3.45,2.8,4.35,4.35,0,0,1-3.44-4.09,2.77,2.77,0,0,1,3.44-2.8,4.36,4.36,0,0,1,3.45,4.09"/><path class="cls-3" d="M425.48,232.39A2.79,2.79,0,0,1,422,235.2a4.36,4.36,0,0,1-3.44-4.1,2.77,2.77,0,0,1,3.44-2.79,4.35,4.35,0,0,1,3.45,4.08"/><path class="cls-3" d="M470.91,240.93a2.79,2.79,0,0,1-3.45,2.8,4.35,4.35,0,0,1-3.44-4.1,2.77,2.77,0,0,1,3.44-2.79,4.34,4.34,0,0,1,3.45,4.09"/><path class="cls-3" d="M517.22,249.62a2.77,2.77,0,0,1-3.44,2.8,4.35,4.35,0,0,1-3.45-4.09,2.79,2.79,0,0,1,3.45-2.8,4.35,4.35,0,0,1,3.44,4.09"/><path class="cls-3" d="M485.88,175.13l-40.71-7.36a3.89,3.89,0,0,1-3.06-3.64l.1-40.1a2.18,2.18,0,0,1,2.71-2.21l40.7,7.36a3.9,3.9,0,0,1,3.07,3.64l-.11,40.1a2.16,2.16,0,0,1-2.7,2.21"/><path d="M486.05,175.17a1.41,1.41,0,0,0,1.13-.24,1.26,1.26,0,0,0,.41-1l.11-40.1a2.94,2.94,0,0,0-2.25-2.67l-40.71-7.36a1.34,1.34,0,0,0-1.12.23,1.24,1.24,0,0,0-.42,1l-.11,40.1a3,3,0,0,0,2.26,2.67Zm.34,2a3.3,3.3,0,0,1-.69-.07L445,169.74a4.86,4.86,0,0,1-3.88-4.61l.1-40.1a3.24,3.24,0,0,1,1.13-2.53,3.28,3.28,0,0,1,2.74-.65l40.7,7.36a4.86,4.86,0,0,1,3.88,4.61l-.1,40.1a3.21,3.21,0,0,1-1.13,2.53,3.16,3.16,0,0,1-2.05.72"/><path class="cls-2" d="M481.67,164.53a2.7,2.7,0,0,1-3.33,3,4.85,4.85,0,0,1-3.78-4.26,2.7,2.7,0,0,1,3.33-3,4.83,4.83,0,0,1,3.78,4.26"/><path class="cls-2" d="M468,162.06a2.71,2.71,0,0,1-3.34,3,4.83,4.83,0,0,1-3.77-4.26,2.7,2.7,0,0,1,3.33-3,4.86,4.86,0,0,1,3.78,4.26"/><path class="cls-4" d="M479,141.57l-27.34-4.95a4.57,4.57,0,0,1-3.59-4.25,2.56,2.56,0,0,1,3.17-2.6l27.34,4.95a4.54,4.54,0,0,1,3.58,4.25,2.55,2.55,0,0,1-3.16,2.6"/><path class="cls-4" d="M478.84,153.83l-27.34-5a4.56,4.56,0,0,1-3.59-4.25,2.54,2.54,0,0,1,3.16-2.59L478.42,147a4.57,4.57,0,0,1,3.58,4.26,2.54,2.54,0,0,1-3.16,2.59"/><path class="cls-3" d="M255.55,227.35,214.84,220a3.89,3.89,0,0,1-3.06-3.64l.1-40.1a2.17,2.17,0,0,1,2.7-2.22l40.71,7.36a3.89,3.89,0,0,1,3.06,3.64l-.1,40.1a2.17,2.17,0,0,1-2.7,2.22"/><path d="M255.72,226.38a1.37,1.37,0,0,0,1.13-.23,1.32,1.32,0,0,0,.42-1l.1-40.11a3,3,0,0,0-2.25-2.66L214.41,175a1.37,1.37,0,0,0-1.13.23,1.28,1.28,0,0,0-.41,1l-.11,40.1A2.93,2.93,0,0,0,215,219Zm.34,2a4,4,0,0,1-.69-.06L214.67,221a4.88,4.88,0,0,1-3.88-4.61l.1-40.11a3.22,3.22,0,0,1,1.13-2.52,3.28,3.28,0,0,1,2.74-.66l40.7,7.36a4.87,4.87,0,0,1,3.88,4.62l-.1,40.1a3.22,3.22,0,0,1-1.13,2.52,3.18,3.18,0,0,1-2.05.72"/><path class="cls-2" d="M251.34,216.74a2.71,2.71,0,0,1-3.33,3,4.86,4.86,0,0,1-3.78-4.26,2.7,2.7,0,0,1,3.33-3,4.83,4.83,0,0,1,3.78,4.25"/><path class="cls-2" d="M237.7,214.27a2.71,2.71,0,0,1-3.33,3,4.85,4.85,0,0,1-3.79-4.26,2.71,2.71,0,0,1,3.34-3,4.87,4.87,0,0,1,3.78,4.26"/><path class="cls-2" d="M224.62,211.91a2.7,2.7,0,0,1-3.33,3,4.83,4.83,0,0,1-3.78-4.26,2.7,2.7,0,0,1,3.33-3,4.86,4.86,0,0,1,3.78,4.26"/><path class="cls-4" d="M248.68,193.78l-27.35-4.94a4.59,4.59,0,0,1-3.58-4.26,2.55,2.55,0,0,1,3.16-2.59l27.35,4.95a4.56,4.56,0,0,1,3.58,4.25,2.54,2.54,0,0,1-3.16,2.59"/><path class="cls-2" d="M248.51,206.05l-27.35-5a4.55,4.55,0,0,1-3.58-4.25,2.55,2.55,0,0,1,3.16-2.6l27.34,4.95a4.57,4.57,0,0,1,3.59,4.25,2.55,2.55,0,0,1-3.16,2.6"/><path class="cls-3" d="M346.35,197.3l-40.7-7.36a3.91,3.91,0,0,1-3.06-3.64l.1-40.11A2.17,2.17,0,0,1,305.4,144l40.7,7.36a3.92,3.92,0,0,1,3.07,3.64l-.11,40.1a2.18,2.18,0,0,1-2.71,2.22"/><path d="M346.53,196.33a1.37,1.37,0,0,0,1.13-.24,1.27,1.27,0,0,0,.41-1l.11-40.11a3,3,0,0,0-2.26-2.66L305.22,145a1.34,1.34,0,0,0-1.13.23,1.28,1.28,0,0,0-.41,1l-.11,40.1a3,3,0,0,0,2.26,2.66Zm.34,2a4,4,0,0,1-.69-.06l-40.7-7.36a4.87,4.87,0,0,1-3.88-4.61l.1-40.11a3.21,3.21,0,0,1,1.13-2.53,3.31,3.31,0,0,1,2.74-.66l40.7,7.37a4.86,4.86,0,0,1,3.88,4.61l-.1,40.1a3.13,3.13,0,0,1-3.18,3.25"/><path class="cls-2" d="M342.64,173.28a2.71,2.71,0,0,1-3.34,3,4.84,4.84,0,0,1-3.77-4.26,2.7,2.7,0,0,1,3.32-3,4.87,4.87,0,0,1,3.79,4.26"/><path class="cls-4" d="M339.49,163.72l-27.34-4.94a4.57,4.57,0,0,1-3.59-4.26,2.54,2.54,0,0,1,3.16-2.58l27.35,4.94a4.56,4.56,0,0,1,3.58,4.25,2.53,2.53,0,0,1-3.16,2.59"/><path class="cls-2" d="M326.81,173.73,312,171a4.56,4.56,0,0,1-3.58-4.25,2.54,2.54,0,0,1,3.16-2.59l14.84,2.68a4.59,4.59,0,0,1,3.58,4.26,2.54,2.54,0,0,1-3.16,2.59"/><path class="cls-4" d="M376.18,229.64l-7.49-2.89-3.46-8.23c-.74-1.77-2.81-2.25-3.51-.8l-3.23,6.73L351,224c-1.61-.1-2.22,1.93-1,3.44l5.49,7.06-1.16,7.93c-.24,1.7,1.46,3.43,2.88,2.92l6.63-2.37,6.74,5.4a1.67,1.67,0,0,0,2.81-1.64l-1.4-8.51,5.32-4.6c1.15-1,.47-3.32-1.14-3.94"/><path d="M368.69,227.74a1,1,0,0,1-.91-.61l-3.46-8.23a1.56,1.56,0,0,0-1.25-1.05h0a.46.46,0,0,0-.45.3l-2.1,4.39a1,1,0,0,1-1.32.46,1,1,0,0,1-.47-1.32l2.11-4.38a2.41,2.41,0,0,1,2.3-1.42,3.5,3.5,0,0,1,3,2.25l3.46,8.24a1,1,0,0,1-.53,1.3,1,1,0,0,1-.38.07"/><path d="M371.9,249.82a3.11,3.11,0,0,1-1.93-.72L367.29,247a1,1,0,0,1,1.23-1.54l2.69,2.15a.71.71,0,0,0,1.22-.71l-1.4-8.51A1,1,0,1,1,373,238l1.41,8.51a2.77,2.77,0,0,1-1.23,2.95,2.4,2.4,0,0,1-1.25.34"/><path d="M356.69,246.38a3,3,0,0,1-1.93-.74,3.79,3.79,0,0,1-1.39-3.41l1.1-7.6L353,231.91a1,1,0,1,1,1.73-1l1.66,3a1,1,0,0,1,.1.62l-1.15,7.93a1.83,1.83,0,0,0,.69,1.59,1,1,0,0,0,.88.26l6.2-2.21a1,1,0,0,1,.67,1.85l-6.21,2.22a2.55,2.55,0,0,1-.86.15"/><path class="cls-1" d="M243.75,44.69,211.81,39c-2.27-.41-4.19-3.29-4.18-6.3,0-2.74,1.62-4.59,3.69-4.22l31.94,5.71c2.27.4,4.19,3.29,4.18,6.3,0,2.74-1.62,4.59-3.69,4.22"/><path class="cls-1" d="M289.34,53.24l-31.94-5.7c-2.27-.41-4.2-3.3-4.19-6.31,0-2.74,1.62-4.58,3.69-4.21l31.94,5.71c2.28.4,4.2,3.29,4.19,6.3,0,2.74-1.62,4.58-3.69,4.21"/><path class="cls-1" d="M334.92,61.81,303,56.1c-2.27-.4-4.19-3.3-4.18-6.31,0-2.74,1.62-4.58,3.69-4.21l31.94,5.71c2.27.4,4.19,3.29,4.19,6.3,0,2.74-1.62,4.59-3.7,4.22"/><path class="cls-1" d="M380.1,70.29l-31.94-5.71c-2.27-.4-4.2-3.29-4.19-6.31,0-2.73,1.62-4.58,3.69-4.21l31.94,5.71c2.28.4,4.2,3.3,4.19,6.3,0,2.75-1.62,4.59-3.69,4.22"/><path class="cls-1" d="M426.09,78.93l-31.93-5.71c-2.28-.41-4.2-3.3-4.19-6.3,0-2.75,1.62-4.59,3.69-4.22l31.94,5.71c2.27.4,4.19,3.29,4.19,6.3,0,2.74-1.62,4.59-3.7,4.22"/><path class="cls-2" d="M471.64,87.48,439.7,81.77c-2.27-.41-4.19-3.3-4.19-6.3,0-2.75,1.62-4.59,3.69-4.22L471.14,77c2.27.41,4.19,3.3,4.19,6.31,0,2.74-1.62,4.59-3.69,4.22"/><path class="cls-2" d="M517.64,96.11l-31.95-5.7c-2.27-.41-4.19-3.3-4.18-6.31,0-2.74,1.62-4.59,3.69-4.22l31.94,5.71c2.27.41,4.19,3.3,4.18,6.3,0,2.75-1.62,4.59-3.68,4.22"/><path class="cls-4" d="M239.37,120.34A11.91,11.91,0,1,1,229,107.08a11.94,11.94,0,0,1,10.42,13.26"/><path class="cls-3" d="M226.06,125a1,1,0,0,1-.92-.65l-2.92-7.92a1,1,0,0,1,.59-1.27,1,1,0,0,1,1.27.58l2,5.5a24.46,24.46,0,0,1,5.22-8.18,1,1,0,1,1,1.37,1.43c-2.13,2-4,5.35-5.7,9.86a1,1,0,0,1-.93.65"/><path class="cls-3" d="M317.94,465.49l-99.2-25.65a8,8,0,0,1-5.76-9.79l24.71-95.46a8,8,0,0,1,9.78-5.76l99.21,25.65a8,8,0,0,1,5.76,9.79l-24.72,95.46a8,8,0,0,1-9.78,5.76"/><path class="cls-4" d="M349.47,375.72,234.72,346.05l3-11.46a8,8,0,0,1,9.78-5.76l99.21,25.65a8,8,0,0,1,5.76,9.79l-3,11.45"/><path d="M245.46,329.56a7,7,0,0,0-6.81,5.28L213.93,430.3a7.05,7.05,0,0,0,5,8.58l99.21,25.65a7,7,0,0,0,8.58-5L351.48,364a7,7,0,0,0-5.05-8.58l-99.21-25.65A6.6,6.6,0,0,0,245.46,329.56ZM320,466.73a8.74,8.74,0,0,1-2.25-.29l-99.21-25.65a9,9,0,0,1-6.47-11l24.71-95.45a9,9,0,0,1,11-6.48l99.21,25.66a9,9,0,0,1,6.47,11L328.68,460a9,9,0,0,1-8.73,6.75"/><path class="cls-1" d="M246.62,407.73l-10.11-2.62a4.39,4.39,0,0,1-3.15-5.36L236,389.49a4.38,4.38,0,0,1,5.35-3.15L251.48,389a4.4,4.4,0,0,1,3.16,5.36L252,404.57a4.4,4.4,0,0,1-5.36,3.16"/><path class="cls-1" d="M270.83,414l-10.11-2.62a4.39,4.39,0,0,1-3.15-5.36l2.65-10.26a4.41,4.41,0,0,1,5.36-3.16l10.11,2.62a4.4,4.4,0,0,1,3.15,5.36l-2.65,10.26a4.4,4.4,0,0,1-5.36,3.16"/><path class="cls-4" d="M295,420.25l-10.11-2.62a4.39,4.39,0,0,1-3.15-5.36L284.43,402a4.4,4.4,0,0,1,5.36-3.15l10.11,2.61a4.41,4.41,0,0,1,3.16,5.36l-2.66,10.26a4.39,4.39,0,0,1-5.36,3.16"/><path class="cls-1" d="M319.25,426.51l-10.11-2.62a4.4,4.4,0,0,1-3.16-5.35l2.66-10.27a4.4,4.4,0,0,1,5.36-3.16l10.11,2.62a4.4,4.4,0,0,1,3.16,5.36l-2.67,10.26a4.39,4.39,0,0,1-5.35,3.16"/><path class="cls-1" d="M240.32,432.05l-10.1-2.61a4.4,4.4,0,0,1-3.16-5.36l2.66-10.26a4.39,4.39,0,0,1,5.36-3.16l10.1,2.61a4.39,4.39,0,0,1,3.16,5.36l-2.66,10.26a4.39,4.39,0,0,1-5.36,3.16"/><path class="cls-1" d="M264.53,438.31l-10.1-2.61a4.39,4.39,0,0,1-3.16-5.36l2.66-10.27a4.38,4.38,0,0,1,5.35-3.15l10.11,2.61a4.39,4.39,0,0,1,3.16,5.36l-2.66,10.27a4.39,4.39,0,0,1-5.36,3.15"/><path class="cls-1" d="M288.74,444.57,278.64,442a4.39,4.39,0,0,1-3.16-5.36l2.66-10.26a4.39,4.39,0,0,1,5.36-3.16l10.1,2.61a4.4,4.4,0,0,1,3.16,5.36l-2.66,10.27a4.4,4.4,0,0,1-5.36,3.15"/><path class="cls-1" d="M252.94,383.33l-10.11-2.61a4.39,4.39,0,0,1-3.15-5.37l2.65-10.26a4.4,4.4,0,0,1,5.36-3.15l10.11,2.61a4.4,4.4,0,0,1,3.15,5.36l-2.65,10.26a4.4,4.4,0,0,1-5.36,3.16"/><path class="cls-1" d="M277.15,389.59,267,387a4.39,4.39,0,0,1-3.15-5.36l2.65-10.26a4.4,4.4,0,0,1,5.36-3.15L282,370.81a4.4,4.4,0,0,1,3.15,5.36l-2.65,10.26a4.4,4.4,0,0,1-5.36,3.16"/><path class="cls-1" d="M301.35,395.85l-10.1-2.62a4.39,4.39,0,0,1-3.16-5.36l2.66-10.26a4.41,4.41,0,0,1,5.36-3.16l10.11,2.62a4.4,4.4,0,0,1,3.15,5.36l-2.66,10.26a4.4,4.4,0,0,1-5.36,3.16"/><path class="cls-1" d="M325.56,402.11l-10.1-2.62a4.4,4.4,0,0,1-3.16-5.36L315,383.87a4.4,4.4,0,0,1,5.36-3.15l10.11,2.61a4.4,4.4,0,0,1,3.15,5.36L330.92,399a4.39,4.39,0,0,1-5.36,3.16"/><path d="M252.75,342.22a1.15,1.15,0,0,1-.26,0,10.89,10.89,0,0,1-2.64-19.87,10.57,10.57,0,0,1,8.07-1.13l.63.19a1,1,0,0,1-.61,1.87l-.52-.15a8.6,8.6,0,0,0-6.57.92A8.91,8.91,0,0,0,253,340.28a1,1,0,0,1-.25,1.94"/><path d="M267,346a1.07,1.07,0,0,1-.25,0,10.89,10.89,0,0,1-2.65-19.87,10.56,10.56,0,0,1,8.08-1.13l.63.18a1,1,0,0,1-.62,1.88l-.51-.15a8.58,8.58,0,0,0-6.58.92A8.91,8.91,0,0,0,267.24,344a1,1,0,0,1,.71,1.21,1,1,0,0,1-1,.74"/><path d="M281.24,349.67a1.07,1.07,0,0,1-.25,0,10.88,10.88,0,0,1-2.65-19.87,10.63,10.63,0,0,1,8.08-1.13l.62.19a1,1,0,1,1-.61,1.88l-.51-.16a8.66,8.66,0,0,0-6.58.92,8.92,8.92,0,0,0,2.14,16.26,1,1,0,0,1-.24,1.94"/><path d="M295.48,353.39a.74.74,0,0,1-.25,0,10.89,10.89,0,0,1-2.64-19.87,10.57,10.57,0,0,1,8.07-1.12,6.52,6.52,0,0,1,.63.18,1,1,0,0,1,.63,1.25,1,1,0,0,1-1.24.63l-.52-.16a8.6,8.6,0,0,0-6.57.93,8.92,8.92,0,0,0,2.14,16.26,1,1,0,0,1,.71,1.2,1,1,0,0,1-1,.73"/><path d="M309.73,357.12a1.07,1.07,0,0,1-.25,0,10.89,10.89,0,0,1-2.64-19.87,10.53,10.53,0,0,1,8.07-1.13l.63.18a1,1,0,0,1-.62,1.89l-.51-.16a8.59,8.59,0,0,0-6.57.92A8.91,8.91,0,0,0,310,355.18a1,1,0,0,1-.25,1.94"/><path d="M324,360.84a.72.72,0,0,1-.25,0,10.89,10.89,0,0,1-2.65-19.87,10.59,10.59,0,0,1,8.08-1.12l.63.18a1,1,0,0,1,.63,1.25,1,1,0,0,1-1.25.62l-.51-.14a8.62,8.62,0,0,0-6.58.91,8.92,8.92,0,0,0,2.14,16.27,1,1,0,0,1-.24,1.93"/><path d="M337.42,364.36a1,1,0,0,1-.25,0,10.89,10.89,0,0,1-2.65-19.88,10.66,10.66,0,0,1,15.61,6.17,1,1,0,0,1-1.89.57,8.68,8.68,0,0,0-6.15-5.95,8.57,8.57,0,0,0-6.56.92,8.9,8.9,0,0,0,2.14,16.26,1,1,0,0,1-.25,1.94"/><path class="cls-4" d="M146,313.13s53.52,7.1,71.3,28.77c22.51,27.45,32.21,68.24,35.37,85.87a39.88,39.88,0,0,1-.33,15.62l-1.3,5.88a43.61,43.61,0,0,1-44.82,34.09h1.06c-3.43-.18-8.44-1.32-9.9-4.43l-5.62-10.27-.53,3.7c-4.23,27.32,6.35,64.48,6.35,64.48l-51.82-8.29a160.23,160.23,0,0,1-88.3-37.37C43.94,479.63,33.52,468.82,29,455.7c-7.64-22.29-7-28.64-9.09-55.68A72.78,72.78,0,0,1,35.42,348.8C52.38,327.62,85,305.39,146,313.13"/><path class="cls-2" d="M195.37,479.29a1,1,0,0,1-.9-.57l-15-31.5a1,1,0,0,1,.47-1.31,1,1,0,0,1,1.32.46l15,31.51a1,1,0,0,1-.47,1.31.92.92,0,0,1-.42.1"/><path class="cls-3" d="M326.48,443.93a69.88,69.88,0,0,0,14.73-25.45c6.12-19.6,5.52-38,17.34-32.51,3.89,1.8,5.86,4,8.41,8.61,1.4,2.52,3.87,9,4.22,12.29,1.72,16.13.2,29.75-15.21,41.95a16.27,16.27,0,0,0-5.84,9.32c-.51,2.37-2.72,10.06-2.72,10.06-.43,1.84-1.78,2.77-4.32,2.25s-17.2-12.46-19.76-17.7c-.68-1.41.15-5.43,3.15-8.82"/><path d="M326.48,443.93Zm.74.65c-2.82,3.2-3.46,6.79-3,7.74,2.46,5.05,16.84,16.7,19.07,17.16s2.93-.55,3.16-1.51c0-.12,2.22-7.73,2.71-10a17.37,17.37,0,0,1,6.19-9.89C370.11,436.37,372,423.67,370.2,407c-.33-3.1-2.72-9.42-4.1-11.92-2.57-4.64-4.43-6.56-8-8.19-2.14-1-3.84-1.15-5.19-.49-3.44,1.69-5,8.6-6.95,17.36-1,4.59-2.2,9.78-3.84,15A71.18,71.18,0,0,1,327.22,444.58Zm17.14,27a7.7,7.7,0,0,1-1.46-.15c-3-.63-17.88-13-20.46-18.24-.93-1.92.17-6.36,3.3-9.91a69.16,69.16,0,0,0,14.53-25.08c1.62-5.18,2.77-10.34,3.79-14.88,2.09-9.27,3.73-16.59,8-18.7,1.93-.94,4.18-.79,6.9.47,3.92,1.82,6.08,4,8.85,9,1.46,2.63,4,9.25,4.34,12.66,1.8,16.88-.16,30.63-15.58,42.84a15.31,15.31,0,0,0-5.49,8.75c-.51,2.37-2.64,9.81-2.73,10.12a3.79,3.79,0,0,1-4,3.1"/><path class="cls-3" d="M405.34,394.27,407,414.46l-9.8.34a3.5,3.5,0,0,1-1.56-.33l-.88-.41a3.43,3.43,0,0,0-3.43.31,3.51,3.51,0,0,1-1.86.63l-72.8,2.56a7.08,7.08,0,0,1-1.78-.18L297,413.21l16.38-6.69a11.14,11.14,0,0,1,2.79-.73l72.06-9.31a3.54,3.54,0,0,1,1.82.26l.14.07a3.38,3.38,0,0,0,3.31-.34l.49-.34a3.37,3.37,0,0,1,1.52-.58l9.87-1.28"/><path d="M300.2,413l14.92,3.47a5.53,5.53,0,0,0,1.52.15l72.8-2.56a2.51,2.51,0,0,0,1.32-.44,4.34,4.34,0,0,1,4.41-.4l.89.41a2.49,2.49,0,0,0,1.11.23l8.76-.31-1.49-18.12-8.84,1.14a2.38,2.38,0,0,0-1.07.42l-.49.34a4.42,4.42,0,0,1-4.29.43l-.15-.07a2.53,2.53,0,0,0-1.28-.18l-72.07,9.3a10.26,10.26,0,0,0-2.54.68Zm16.24,5.6a7.52,7.52,0,0,1-1.77-.21l-17.94-4.17a1,1,0,0,1-.15-1.87L313,405.61a11.86,11.86,0,0,1,3-.8l72.07-9.31a4.44,4.44,0,0,1,2.33.34l.14.06a2.43,2.43,0,0,0,2.36-.23l.49-.35a4.39,4.39,0,0,1,1.95-.75l9.88-1.28a.93.93,0,0,1,.74.21,1,1,0,0,1,.37.69L408,414.37a1,1,0,0,1-.25.74.92.92,0,0,1-.7.33l-9.8.34a4.54,4.54,0,0,1-2-.41l-.88-.42a2.44,2.44,0,0,0-2.43.22,4.34,4.34,0,0,1-2.39.81l-72.8,2.56h-.27"/><path d="M315.84,418.36a1,1,0,0,1-1-.88l-.58-5.18a1,1,0,0,1,.87-1.09,1,1,0,0,1,1.09.87l.58,5.18a1,1,0,0,1-.87,1.09h-.11"/><path class="cls-2" d="M423.65,413.42l-17,1.12-1.41-20.32,17-1.12a5.6,5.6,0,0,1,6,5.13l.65,9.29a5.57,5.57,0,0,1-5.25,5.9"/><path d="M406.29,395.14l1.28,18.35,16-1.06a4.67,4.67,0,0,0,3.23-1.59,4.41,4.41,0,0,0,1.1-3.25l-.64-9.28a4.63,4.63,0,0,0-5-4.23Zm-.55,20.45-1.56-22.28,18-1.2a6.61,6.61,0,0,1,7.06,6.06l.66,9.29a6.39,6.39,0,0,1-1.59,4.68,6.59,6.59,0,0,1-4.59,2.26l-18,1.19"/><path class="cls-3" d="M412.54,401.33a1,1,0,0,1-1-.95,1,1,0,0,1,.94-1l9.31-.44a1,1,0,0,1,1,.94,1,1,0,0,1-.94,1l-9.31.44h0"/><path class="cls-3" d="M334.93,441.9l-2.84-2.4a20.2,20.2,0,0,1-5.86-13.9c0-6.42.41-16.66,3.2-21.92.72-1.37,3.27-4.76,5.61-4s2.28,4.73,1.41,9c-1.38,6.79,7,10.84,7,10.84l-8.49,22.38"/><path d="M330.73,439.69a1,1,0,0,1-.7-.3c-.2-.2-4.82-5-4.78-13.8,0-10.93,1.12-18.25,3.3-22.37.79-1.48,3.71-5.48,6.78-4.53,2.59.8,3.3,4.23,2.09,10.19s4.17,8.69,4.23,8.72a1,1,0,1,1-.87,1.77c-.07,0-6.81-3.43-5.3-10.89.92-4.52.65-7.48-.73-7.9s-3.65,2-4.45,3.56c-2,3.79-3,11-3.08,21.46A18.59,18.59,0,0,0,331.44,438a1,1,0,0,1-.71,1.68"/><path class="cls-4" d="M207.61,516.29c-.23.06-1.77-2.18,0,0"/><path class="cls-4" d="M261,541.52c-24.92,6.53-43.45-12.52-52.13-23.63l-1.28-1.6c.11,0-.07-.57-1.06-2.37L209,540.05l-31.76-4.7-134-38.78-4.09-1.34s-27-7.66-32.72-35.06C-6.24,399.06,7,366.09,22.11,342.71,35.53,322,66.56,308.05,96.44,308.19c23,.1,64.4,6.58,91.64,15.53,17.71,5.82,27.44,13.69,39.43,32.91,16,25.59,51.78,103.71,51.78,103.71S316,527.13,261,541.52"/><path d="M205.79,515.18a1,1,0,0,1-.85-.48c-22.73-37.51-29.63-65.06-29.7-65.33a1,1,0,0,1,1.92-.47c.06.27,6.91,27.55,29.48,64.78a1,1,0,0,1-.85,1.5"/><path class="cls-4" d="M235.6,497.43c35.52-27,69.57-62.54,93.21-55.05,8.61,2.73,27.31,24.44,19.95,38.07-13.42,24.92-53.31,58.51-87.57,62.13-53.86,5.69-25.59-45.15-25.59-45.15"/><path d="M183.46,208.94l4.46-1.71a8.26,8.26,0,0,0,5.27-8.8c-1.51-11.39-11.56-32.93-66.32-30.68C71,170.06,61.25,256.61,102,284.79s77-61.16,77-61.16l4.5-14.69"/><path class="cls-3" d="M176.56,209.42a3.6,3.6,0,0,1,6.75.38c2.38,7.8,3.17,13,3.14,16.12,0,4.14-4.61,7.26-3.59,11.93s3,10.17,1.6,17.85c-1.4,7.5-1.56,43.3-27.81,36.24a1.85,1.85,0,0,0-2.31,1.39c-1.11,5.21-4.05,19.54-4.65,27.53a8.68,8.68,0,0,1-8.21,8c-11.28.6-32,.35-45.67-7.79a7.35,7.35,0,0,1-2.39-10.27c2.84-4.46,8.36-17.54,8.59-26a66.81,66.81,0,0,0,19.92-1.17c16.72-3.52,28-18.76,27.45-35.83-.12-3.67-.95-9,2.26-13.81,8.27-12.29,13,3,13,3l11.88-27.58"/><path d="M103,285.87c-.63,8.75-5.89,21.05-8.7,25.46a6.39,6.39,0,0,0-.84,4.93,6.24,6.24,0,0,0,2.91,4c13.49,8,34.05,8.24,45.11,7.65a7.71,7.71,0,0,0,7.28-7.08c.59-8,3.46-22,4.67-27.67a2.77,2.77,0,0,1,1.28-1.81,2.91,2.91,0,0,1,2.25-.32c5.81,1.56,10.71,1,14.54-1.58,8.82-6,10.57-21.48,11.5-29.8.2-1.74.36-3.12.54-4.09,1.16-6.19,0-10.88-1-15-.2-.84-.4-1.65-.57-2.44-.65-3,.68-5.39,1.86-7.52a10.29,10.29,0,0,0,1.7-4.63c0-2-.35-6.82-3.09-15.82a2.62,2.62,0,0,0-4.91-.28l-12.93,30-.8-2.54c-.57-1.83-2.67-6.67-5.48-7.08-2.18-.31-4.35,2.17-5.8,4.32-2.58,3.84-2.35,8.16-2.16,11.63,0,.55.06,1.09.08,1.59.56,17.77-11.32,33.26-28.23,36.83A69.14,69.14,0,0,1,103,285.87Zm31,44.18c-11.63,0-27.43-1.46-38.65-8.13a8.2,8.2,0,0,1-3.81-5.2,8.31,8.31,0,0,1,1.08-6.46c2.75-4.3,8.22-17.2,8.45-25.5l0-1.08,1.08.13a66.59,66.59,0,0,0,19.59-1.15c16-3.37,27.19-18,26.66-34.84,0-.49,0-1-.07-1.55-.2-3.56-.47-8.44,2.5-12.84,2.56-3.8,5.15-5.54,7.71-5.16,3,.44,5.1,3.8,6.18,6.15L175.65,209a4.59,4.59,0,0,1,8.61.49c2.68,8.8,3.2,13.78,3.17,16.42a11.83,11.83,0,0,1-2,5.56c-1.1,2-2.15,3.9-1.65,6.15.17.77.36,1.57.56,2.38,1,4.12,2.28,9.25,1,15.86-.17.91-.33,2.32-.51,4-1,8.62-2.79,24.68-12.36,31.2-4.34,2.95-9.77,3.57-16.17,1.85a.9.9,0,0,0-.7.1.84.84,0,0,0-.38.55c-1.2,5.62-4.05,19.56-4.63,27.4a9.69,9.69,0,0,1-9.14,8.9c-2.2.12-4.77.21-7.58.21"/><path d="M101.82,180s-23.11-18.21-45.93-4.81S6,223.36,24.72,272.13c11.73,30.64,13.81,53.24,13.73,65.8a4.77,4.77,0,0,0,8,3.5C61.72,326.93,91,294,88.92,256.32c-2.77-50.74,12.9-76.28,12.9-76.28"/><path d="M185.79,252.46l-.62-1.87c9.47-3.12,7.37-18.44,6.63-22.51l-26.71,6.82L164.6,233l28.7-7.32.22,1c.21.89,4.86,21.68-7.73,25.82"/><path d="M183.94,262.53a1,1,0,0,1-.52-1.82l4.14-2.6a2.9,2.9,0,0,0,1.14-3.6l-1.6-3.78a1,1,0,0,1,.53-1.29,1,1,0,0,1,1.29.52l1.6,3.78a4.87,4.87,0,0,1-1.91,6.05l-4.15,2.59a1,1,0,0,1-.52.15"/><path d="M157.51,259.48a7.72,7.72,0,0,1-3.46-.8c-2.79-1.41-4.77-4.51-5.86-9.22a1,1,0,0,1,1.93-.45c.94,4.1,2.56,6.75,4.79,7.89a6.19,6.19,0,0,0,4.79.22,1,1,0,1,1,.78,1.81,7.83,7.83,0,0,1-3,.55"/><path class="cls-3" d="M95.84,176.24s22.43,12.68,7.36,33.53c0,0,12.93-5.51,15.48-18.09s-5.82-18.77-12-20-10.8,4.59-10.8,4.59"/><path d="M97.37,176c2.69,1.79,9.75,7.16,11.58,15.59,1.1,5,.15,10.15-2.8,15.39,3.88-2.49,9.94-7.55,11.56-15.53,1.07-5.29.19-9.95-2.54-13.46a15.23,15.23,0,0,0-8.73-5.4C102.27,171.77,98.82,174.57,97.37,176Zm2.95,36,2.08-2.87c4.26-5.91,5.82-11.68,4.63-17.15-2-9.39-11.58-14.9-11.68-15l-1-.57.71-.9c.2-.26,5-6.31,11.77-4.95a17,17,0,0,1,9.89,6.13c2.17,2.77,4.43,7.64,2.93,15.06-2.62,12.95-15.51,18.58-16.07,18.81l-3.26,1.39"/><path class="cls-4" d="M152.93,273.87s6.75,0,13.5-.54l-7.49-12.41-6,12.95"/><path class="cls-4" d="M162.83,256.29a4.1,4.1,0,1,0-3.55,4.59,4.09,4.09,0,0,0,3.55-4.59"/><path d="M200.32,538.71l-23.07-3.36L41.94,491.3c-5.33-8.12-9.69-18.15-13.09-30.61L13.52,400.23a6.77,6.77,0,0,1,10.05-7.56c20.15,12.19,61.13,29.56,127.08,25.53a11.07,11.07,0,0,1,11,7.13l4.12,16.48c7.24,29,12,49.69,23.6,74.9,1.79,3.91,5.8,12.54,8.25,17,.6,1.07,1.72,3.31,2.66,5"/><path class="cls-3" d="M19.76,392.67c20.14,12.19,61.12,29.56,127.07,25.53a11.09,11.09,0,0,1,11,7.13L162,441.81c7.23,29,13.12,49.22,23.6,74.89L193.42,532c1.52,1.84-1.33,5.44-3.71,5.27L165.89,534C91.25,524.12,43.64,528.93,25,460.69L9.71,400.22a6.76,6.76,0,0,1,10.05-7.55"/><path d="M191.3,537.46H191l-10.27-.75a1,1,0,0,1-.92-1.06,1,1,0,0,1,1.06-.91l10.27.75a1.48,1.48,0,0,0,1.25-2.41,1.63,1.63,0,0,1-.11-.17c-.2-.39-5-9.44-6.33-12.66C173,488.86,168.26,471,161,442.05l-4.1-16.42a10,10,0,0,0-10-6.44C79.56,423.3,38,404.87,19.25,393.52A5.78,5.78,0,0,0,10.66,400l15.81,62.36c11.84,43.43,34.11,54.65,73.71,61.1a1,1,0,1,1-.31,1.94c-16.49-2.67-33.61-6.51-47.09-16.31-13.29-9.66-22.25-24.35-28.22-46.23L8.75,400.47a7.59,7.59,0,0,1,2.81-8.21,7.64,7.64,0,0,1,8.71-.43c18.57,11.23,59.7,29.47,126.5,25.39a12,12,0,0,1,12,7.77.35.35,0,0,1,0,.11L163,441.57c7.2,28.84,11.9,46.67,24.85,77.91,1.24,3,5.73,11.49,6.22,12.41a3.46,3.46,0,0,1-2.72,5.57"/><path d="M490.15,413.62l-7.54.24.35,3-27.54-6.49a3.33,3.33,0,0,0-2.59.44l-53.36,34.05-.3-2.57-3,.26,0,1.9a2,2,0,0,0,1.42,1.9l39.18,11.89a4.54,4.54,0,0,0,4.23-.88l48.56-39.45c.5-.41.92-.85.76-2.62l0-.16-.18-1.52"/><path d="M398.2,444.82,436.4,456a4.53,4.53,0,0,0,4.21-.88L489,415.86c1-.79.45-3.35-.73-3.63l-33.61-7.94a3.24,3.24,0,0,0-2.57.43L397.56,441c-1.09.7-.62,3.47.64,3.82"/><path class="cls-3" d="M436.77,452.21a4.79,4.79,0,0,1-1-.14L401.27,441.9l51.66-34.64a2.32,2.32,0,0,1,1.28-.39,2.79,2.79,0,0,1,.58.07l30.38,7.53-46.1,36.89a3.54,3.54,0,0,1-2.3.85h0"/><path d="M436.3,451.16h.14l.39.05a2.62,2.62,0,0,0,1.62-.62L483,415l-28.45-7a1.35,1.35,0,0,0-1.08.18l-49.9,33.46L436,451.12l.23,0Zm.38,2.06a4.33,4.33,0,0,1-1.22-.21L401,442.85a1,1,0,0,1-.69-.8,1,1,0,0,1,.42-1l51.67-34.64A3.3,3.3,0,0,1,455,406l30.39,7.53a1,1,0,0,1,.38,1.73l-46.11,36.9A4.64,4.64,0,0,1,437,453.2l-.32,0"/><path class="cls-4" d="M450.93,414.43l17.95,5a1.19,1.19,0,0,0,.72-.19c.45-.25.66-.59.4-.66l-17.95-5a1,1,0,0,0-.66.15c-.49.24-.73.62-.46.7"/><path class="cls-4" d="M447.65,416.89l18,5a1.1,1.1,0,0,0,.71-.18c.45-.25.67-.6.41-.66l-18-5a1,1,0,0,0-.64.15c-.49.25-.75.62-.48.69"/><path class="cls-4" d="M444.13,419.56l18,5a1.16,1.16,0,0,0,.71-.19c.45-.25.66-.6.41-.66l-18-5a1,1,0,0,0-.64.15c-.49.24-.74.62-.48.7"/><path class="cls-4" d="M426.22,430.16l22.18,6.07a1.13,1.13,0,0,0,.7-.18c.45-.25.67-.6.42-.67l-22.18-6.07a1,1,0,0,0-.64.15c-.49.25-.75.63-.48.7"/><path class="cls-4" d="M422.44,432.41l23.15,6.51a1.21,1.21,0,0,0,.73-.18c.45-.26.65-.6.39-.67l-23.15-6.51a1.05,1.05,0,0,0-.65.15c-.49.25-.74.62-.47.7"/><path class="cls-4" d="M418.43,434.87l24.2,6.71a1.06,1.06,0,0,0,.7-.18c.46-.25.67-.59.42-.67L419.55,434a1.12,1.12,0,0,0-.64.16c-.49.25-.75.62-.48.7"/><path d="M492.39,319.23a.92.92,0,0,1-.36-.07l-4.55-1.8a1,1,0,1,1,.72-1.84l4.56,1.8a1,1,0,0,1-.37,1.91"/><path d="M503,323.42a1.21,1.21,0,0,1-.37-.07l-4.55-1.8a1,1,0,0,1,.73-1.84l4.55,1.8a1,1,0,0,1-.36,1.91"/><path d="M492.31,328.3a.92.92,0,0,1-.36-.07,1,1,0,0,1-.55-1.28l1.86-4.73a1,1,0,0,1,1.84.72l-1.87,4.74a1,1,0,0,1-.92.62"/><path d="M496.66,317.28a.92.92,0,0,1-.36-.07,1,1,0,0,1-.56-1.28l1.86-4.73a1,1,0,1,1,1.84.72l-1.86,4.73a1,1,0,0,1-.92.63"/><path class="cls-2" d="M468.44,347.84a5.61,5.61,0,1,1-7.4-2.79,5.62,5.62,0,0,1,7.4,2.79"/><path d="M503.73,360.12l2,6.4c1.07-1,2.78-2.66,4.52-4.47Zm1.56,9.18a.78.78,0,0,1-.26,0,1,1,0,0,1-.69-.65l-3-9.66a1,1,0,0,1,.24-1,1,1,0,0,1,1-.26l9.87,2.91a1,1,0,0,1,.45,1.62C509.57,365.75,506,369,506,369a1,1,0,0,1-.66.26"/><path class="cls-2" d="M68.17,90.61a.94.94,0,0,1-.55-.17,1,1,0,0,1-.28-1.36,179,179,0,0,1,98.73-72.72,1,1,0,1,1,.56,1.89A177,177,0,0,0,69,90.17a1,1,0,0,1-.82.44"/><path class="cls-2" d="M92.67,77.94a1,1,0,0,1-.62-.22,1,1,0,0,1-.15-1.39,154.59,154.59,0,0,1,85.52-53.65,1,1,0,1,1,.46,1.92,152.68,152.68,0,0,0-84.44,53,1,1,0,0,1-.77.37"/><path class="cls-3" d="M112.91,115.58a5.52,5.52,0,1,1-5.41,5.62,5.52,5.52,0,0,1,5.41-5.62"/><path d="M138.91,81.9a1,1,0,0,1-.47-.12,1,1,0,0,1-.4-1.33l2.2-4.12a1,1,0,1,1,1.74.93l-2.2,4.11a1,1,0,0,1-.87.53"/><path d="M131.86,93.74a1,1,0,0,1-.49-.13,1,1,0,0,1-.36-1.35l2.39-4.12a1,1,0,1,1,1.7,1l-2.39,4.12a1,1,0,0,1-.85.49"/><path d="M132.66,83.6a1,1,0,0,1-.49-.13l-4.23-2.39a1,1,0,1,1,1-1.72l4.23,2.39a1,1,0,0,1-.49,1.85"/><path d="M144.54,90.32a1,1,0,0,1-.48-.13l-4.24-2.39a1,1,0,0,1,1-1.72L145,88.47a1,1,0,0,1,.37,1.35,1,1,0,0,1-.86.5"/></g></g></svg>