<svg xmlns="http://www.w3.org/2000/svg" viewBox="0 0 558.36 557.8"><defs><style>.cls-1{fill:#caddff;}.cls-2{fill:#5479f7;}.cls-3{fill:#fff;}.cls-4{fill:#99b9ff;}</style></defs><title>Ativo 2</title><g id="Camada_2" data-name="Camada 2"><g id="Camada_1-2" data-name="Camada 1"><path class="cls-1" d="M554.12,211.34C529.13,84.55,403.38,11,297.48,1.22,209.75-6.88,95.16,25.13,54.66,102.48c-25.47,48.64,5.13,64.09-15.7,174.3C20.93,372.17-10.63,406.33,9.37,455c16.36,39.74,54.58,58.54,79,70.56,96.29,47.36,242.58,41.8,347.9-44.6,24.64-20.21,146.11-126.14,117.84-269.57"/><path class="cls-2" d="M149,59.54c2.26-11.8,13.93-19.63,26.06-17.48a21.65,21.65,0,0,1,17.87,25.26C190.62,79.13,179,87,166.82,84.81A21.66,21.66,0,0,1,149,59.54Zm-14.27,3.84a34.5,34.5,0,0,0,.46,5.86l-8,4.93,2.89,8L139.43,81a35.17,35.17,0,0,0,3.42,4.83L138.41,94l6.6,5.46,7.59-5.54a36.08,36.08,0,0,0,5.46,2.5l.35,9.21,8.54,1.51,3.74-8.48a36.64,36.64,0,0,0,6-.48l5,7.78,8.19-2.85L188.84,94a35.84,35.84,0,0,0,5-3.35l8.39,4.27,5.65-6.43-5.67-7.36a34.48,34.48,0,0,0,2.6-5.32l9.48-.39,1.59-8.3-8.71-3.6a34.42,34.42,0,0,0-.46-5.86l8-4.93-2.89-8-9.42,1.12A35.36,35.36,0,0,0,199,41l4.43-8.17-6.6-5.46L189.24,33a36.65,36.65,0,0,0-5.47-2.5l-.35-9.21-8.53-1.51-3.75,8.48a37.64,37.64,0,0,0-6,.47l-5-7.77-8.19,2.84L153,32.9a36.44,36.44,0,0,0-5,3.35L139.63,32,134,38.41l5.66,7.36a34.48,34.48,0,0,0-2.6,5.32l-9.48.38L126,59.77l8.7,3.61"/><path d="M171,42.71a21.35,21.35,0,0,0-21.08,17A20,20,0,0,0,153.16,75,21.11,21.11,0,0,0,167,83.81c11.58,2,22.75-5.43,24.91-16.68a20.09,20.09,0,0,0-3.22-15.27,21.06,21.06,0,0,0-13.84-8.81A21.8,21.8,0,0,0,171,42.71Zm-.19,43.45a23.87,23.87,0,0,1-4.18-.37,23.1,23.1,0,0,1-15.14-9.65A22,22,0,0,1,148,59.35c2.36-12.32,14.57-20.52,27.23-18.29a23.1,23.1,0,0,1,15.14,9.66,22,22,0,0,1,3.54,16.79A23.36,23.36,0,0,1,170.82,86.16Zm-11.43,18.62,7,1.23,3.43-7.76a1,1,0,0,1,.91-.6h.11a35.26,35.26,0,0,0,5.76-.46,1,1,0,0,1,1,.45l4.61,7.11,6.68-2.32-1-8.35a1,1,0,0,1,.5-1,36,36,0,0,0,4.85-3.25,1,1,0,0,1,1.08-.11L202,93.64l4.58-5.23-5.15-6.7a1,1,0,0,1-.07-1.13,34.89,34.89,0,0,0,2.53-5.17,1,1,0,0,1,.89-.64l8.68-.35,1.29-6.72-7.95-3.29a1,1,0,0,1-.62-.93,33.36,33.36,0,0,0-.45-5.69,1,1,0,0,1,.47-1l7.32-4.5-2.34-6.42-8.63,1a1,1,0,0,1-1-.5,35.51,35.51,0,0,0-3.32-4.69,1,1,0,0,1-.11-1.13l4-7.43-5.35-4.44-7,5.08a1,1,0,0,1-1.09.06,35.08,35.08,0,0,0-5.31-2.43,1,1,0,0,1-.66-.91l-.33-8.4-6.95-1.23-3.43,7.76a1,1,0,0,1-.92.6.41.41,0,0,0-.11,0,36.59,36.59,0,0,0-5.76.46,1,1,0,0,1-1-.44l-4.61-7.11L153,24.43l1,8.35a1,1,0,0,1-.5,1A34.77,34.77,0,0,0,148.64,37a1,1,0,0,1-1.09.11l-7.68-3.91-4.59,5.22,5.16,6.7a1,1,0,0,1,.07,1.13A33,33,0,0,0,138,51.45a1,1,0,0,1-.9.64l-8.68.35-1.28,6.72,7.95,3.29a1,1,0,0,1,.62.93,32.45,32.45,0,0,0,.44,5.69,1,1,0,0,1-.46,1l-7.32,4.5L130.68,81l8.63-1a1,1,0,0,1,1,.49,33.07,33.07,0,0,0,3.32,4.68,1,1,0,0,1,.11,1.13l-4,7.45,5.36,4.43,7-5.08A1,1,0,0,1,153.1,93a35.54,35.54,0,0,0,5.3,2.44,1,1,0,0,1,.66.9Zm7.56,3.36h-.18l-8.53-1.51a1,1,0,0,1-.83-1l-.33-8.54a37.67,37.67,0,0,1-4.41-2l-7.07,5.17a1,1,0,0,1-1.23,0l-6.6-5.46a1,1,0,0,1-.24-1.25l4.11-7.58a37.08,37.08,0,0,1-2.74-3.87l-8.77,1.05a1,1,0,0,1-1.07-.66l-2.88-7.95a1,1,0,0,1,.42-1.2L134,68.73a36.17,36.17,0,0,1-.36-4.68l-8.09-3.35a1,1,0,0,1-.6-1.12l1.59-8.3a1,1,0,0,1,1-.81l8.82-.37a35.71,35.71,0,0,1,2.08-4.26L133.18,39a1,1,0,0,1,0-1.28l5.64-6.43a1,1,0,0,1,1.21-.23l7.82,4a39,39,0,0,1,4-2.69l-1-8.49a1,1,0,0,1,.66-1.07L159.74,20a1,1,0,0,1,1.17.4l4.69,7.23a37.35,37.35,0,0,1,4.88-.38L174,19.32a1,1,0,0,1,1.1-.59l8.54,1.51a1,1,0,0,1,.82,1l.33,8.54a36.05,36.05,0,0,1,4.41,2l7.08-5.16a1,1,0,0,1,1.22,0l6.6,5.46a1,1,0,0,1,.24,1.26l-4.11,7.57a35.65,35.65,0,0,1,2.74,3.87l8.77-1a1,1,0,0,1,1.07.65l2.89,8a1,1,0,0,1-.42,1.19l-7.45,4.59a34.48,34.48,0,0,1,.36,4.68l8.1,3.35a1,1,0,0,1,.6,1.12l-1.59,8.3a1,1,0,0,1-.95.82l-8.82.36A36.56,36.56,0,0,1,203.4,81l5.25,6.82a1,1,0,0,1,0,1.28L203,95.55a1,1,0,0,1-1.21.23l-7.81-4a37.13,37.13,0,0,1-4,2.7l1,8.49a1,1,0,0,1-.67,1.07l-8.18,2.85a1,1,0,0,1-1.18-.41l-4.68-7.23a39.48,39.48,0,0,1-4.89.39l-3.48,7.88a1,1,0,0,1-.92.6"/><path class="cls-2" d="M38,139c-3.22-17.74,8.87-35,27-38.6s35.46,7.93,38.69,25.68-8.87,35-27,38.6S41.2,156.73,38,139Zm-17.89,13.1a50.58,50.58,0,0,0,3.81,8l-8.54,11.25,8.34,9.56,12.58-6.67a53,53,0,0,0,7.39,4.91L41.9,192.9,54.08,197l7.63-11.86a53.68,53.68,0,0,0,9,.54l5.48,12.7L89,195.84l.66-13.91A54.93,54.93,0,0,0,97.79,178l11.26,8.15,9.93-8.42-6.52-12.21a54,54,0,0,0,5.17-7.38l14,1.44,4.42-12.07-11.91-7.22a51.28,51.28,0,0,0,.76-8.86L138,125.76l-2.27-12.48L121.58,113a50.23,50.23,0,0,0-3.81-8l8.55-11.25L118,84.2,105.4,90.86A53.28,53.28,0,0,0,98,86l1.78-13.84L87.59,68.05,80,79.91a54.75,54.75,0,0,0-9-.54l-5.48-12.7L52.71,69.18l-.65,13.91A55,55,0,0,0,43.88,87L32.62,78.87,22.7,87.28l6.51,12.21a55.17,55.17,0,0,0-5.16,7.38l-14-1.44L5.58,117.5l11.91,7.23a52.08,52.08,0,0,0-.76,8.85l-13,5.68,2.26,12.48,14.15.33"/><path d="M75.32,95.5a33.26,33.26,0,0,0-6.48.64C51.26,99.6,39.5,116.39,42.62,133.58a30.66,30.66,0,0,0,13,19.95,32.22,32.22,0,0,0,24.53,4.92C97.71,155,109.48,138.19,106.36,121a30.61,30.61,0,0,0-13-20A31.9,31.9,0,0,0,75.32,95.5Zm-1.67,65.59a33.84,33.84,0,0,1-19.17-5.9,32.65,32.65,0,0,1-13.84-21.26c-3.32-18.26,9.16-36.09,27.81-39.77A34.21,34.21,0,0,1,94.5,99.39a32.67,32.67,0,0,1,13.83,21.26c3.32,18.26-9.16,36.1-27.81,39.77A35.62,35.62,0,0,1,73.65,161.09Zm.71,18.34a1,1,0,0,1,.92.6l5.16,12,11.2-2.2.61-13.12a1,1,0,0,1,.65-.89,55,55,0,0,0,8-3.86,1,1,0,0,1,1.1.06l10.63,7.68,8.7-7.38-6.13-11.49a1,1,0,0,1,.11-1.12,54.71,54.71,0,0,0,5.07-7.24,1,1,0,0,1,1-.5l13.27,1.36,3.87-10.56-11.21-6.8a1,1,0,0,1-.46-1,52.86,52.86,0,0,0,.74-8.68,1,1,0,0,1,.6-.92l12.32-5.36-2-10.89-13.33-.31a1,1,0,0,1-.92-.65,49.57,49.57,0,0,0-3.74-7.8,1,1,0,0,1,.07-1.12l8-10.59-7.28-8.35-11.87,6.3a1,1,0,0,1-1.1-.1,51.79,51.79,0,0,0-7.25-4.81,1,1,0,0,1-.52-1l1.67-13L91.66,64l-7.2,11.21a1,1,0,0,1-1,.45,53.72,53.72,0,0,0-8.83-.53,1,1,0,0,1-1-.61L68.53,62.6l-11.2,2.2-.61,13.11a1,1,0,0,1-.64.9,54.59,54.59,0,0,0-8,3.85,1,1,0,0,1-1.1,0L36.32,74.92l-8.7,7.38,6.13,11.5a1,1,0,0,1-.12,1.11,55.66,55.66,0,0,0-5.07,7.24,1,1,0,0,1-1,.5l-13.28-1.36-3.86,10.56,11.2,6.8a1,1,0,0,1,.47,1,50.87,50.87,0,0,0-.74,8.69,1,1,0,0,1-.61.92L8.46,134.64l2,10.9,13.32.3a1,1,0,0,1,.92.65,49.15,49.15,0,0,0,3.74,7.8,1,1,0,0,1-.06,1.12L20.3,166l7.28,8.34,11.87-6.3a1,1,0,0,1,1.1.1A52,52,0,0,0,47.81,173a1,1,0,0,1,.51,1l-1.67,13,10.66,3.55,7.2-11.21a1,1,0,0,1,1-.45,53.58,53.58,0,0,0,8.83.54Zm5.49,14.71a1,1,0,0,1-.93-.61L73.7,181.45a56.25,56.25,0,0,1-7.84-.48l-7.28,11.32a1,1,0,0,1-1.16.42l-12.19-4.07a1,1,0,0,1-.68-1.08l1.69-13.16a54.2,54.2,0,0,1-6.42-4.27l-12,6.37a1,1,0,0,1-1.23-.23l-8.34-9.55a1,1,0,0,1-.05-1.27l8.15-10.72A53.33,53.33,0,0,1,23,147.84l-13.47-.31a1,1,0,0,1-1-.82L6.34,134.22a1,1,0,0,1,.59-1.1l12.45-5.41A51.72,51.72,0,0,1,20,120L8.71,113.14a1,1,0,0,1-.42-1.21L12.7,99.87a1,1,0,0,1,1.05-.65l13.41,1.36a56.64,56.64,0,0,1,4.5-6.43l-6.2-11.62a1,1,0,0,1,.24-1.24l9.92-8.41a1,1,0,0,1,1.24,0L47.59,80.6a55.33,55.33,0,0,1,7.15-3.43l.62-13.25a1,1,0,0,1,.81-.94l12.76-2.51a1,1,0,0,1,1.12.58l5.22,12.08a56.58,56.58,0,0,1,7.85.48l7.27-11.33a1,1,0,0,1,1.17-.4L103.75,66a1,1,0,0,1,.67,1.07l-1.68,13.17a53.2,53.2,0,0,1,6.41,4.26l12-6.36a1,1,0,0,1,1.23.22l8.35,9.56a1,1,0,0,1,0,1.27l-8.14,10.71a52.13,52.13,0,0,1,3.3,6.9l13.47.3a1,1,0,0,1,1,.83l2.27,12.49a1,1,0,0,1-.59,1.1l-12.45,5.41a54.27,54.27,0,0,1-.66,7.69l11.33,6.88a1,1,0,0,1,.42,1.2l-4.42,12.07a1,1,0,0,1-1,.65L121.81,154a54.91,54.91,0,0,1-4.5,6.43l6.2,11.62a1,1,0,0,1-.23,1.24l-9.92,8.42a1,1,0,0,1-1.24,0L101.38,174a56,56,0,0,1-7.15,3.42l-.62,13.26a1,1,0,0,1-.81.94L80,194.12l-.19,0"/><path d="M513.72,155.17a1,1,0,0,1-1-1V149a1,1,0,0,1,2,0v5.2a1,1,0,0,1-1,1"/><path d="M513.72,167.29a1,1,0,0,1-1-1v-5.19a1,1,0,0,1,2,0v5.19a1,1,0,0,1-1,1"/><path d="M510.26,158.63h-5.2a1,1,0,1,1,0-2h5.2a1,1,0,0,1,0,2"/><path d="M522.37,158.63h-5.19a1,1,0,1,1,0-2h5.19a1,1,0,1,1,0,2"/><path d="M523.5,300.93a.92.92,0,0,1-.29,0,1,1,0,0,1-.67-1.25c13.08-43,5.38-75.41-1.54-96a1,1,0,1,1,1.9-.64c7,20.89,14.81,53.69,1.56,97.25a1,1,0,0,1-1,.71"/><path d="M527.53,328.42a1,1,0,0,1-.42-.08,1,1,0,0,1-.5-1.34c14.67-32.37,15.43-66.54,13.49-89.51-2.12-24.93-7.78-42.41-7.84-42.58a1,1,0,0,1,.64-1.27,1,1,0,0,1,1.27.64c.06.18,5.79,17.83,7.92,43,2,23.22,1.2,57.78-13.65,90.58a1,1,0,0,1-.91.58"/><path d="M414.17,534.39H164.39c-10.76,0-18.38-8.69-17-19.42L208.86,29c1.37-10.73,11.19-19.43,21.95-19.43L468,6.82c27.24,0,30.93,11.47,29.58,22.2L436.11,515c-1.36,10.73-11.18,19.42-21.94,19.42"/><path class="cls-3" d="M399.14,534.39H149.37c-10.77,0-18.39-8.72-17-19.49l61.5-487.49C195.19,16.65,205,7.92,215.78,7.92H465.56c10.76,0,18.38,8.73,17,19.49L421.08,514.9c-1.35,10.77-11.18,19.49-21.94,19.49"/><path class="cls-4" d="M146.57,515.58,205.29,50.1a5.26,5.26,0,0,1,5.07-4.49H461.48a3.87,3.87,0,0,1,3.92,4.49L406.68,515.58a5.26,5.26,0,0,1-5.07,4.5H150.5a3.88,3.88,0,0,1-3.93-4.5"/><path class="cls-1" d="M337.54,32.72a6.3,6.3,0,0,1-6.38-7.31,8.53,8.53,0,0,1,8.22-7.3,6.31,6.31,0,0,1,6.39,7.3,8.55,8.55,0,0,1-8.23,7.31"/><path d="M399.14,535.4H149.36a18,18,0,0,1-13.76-6,18.3,18.3,0,0,1-4.27-14.63l.8-6.26a1,1,0,0,1,2,.25l-.79,6.27a16.32,16.32,0,0,0,3.78,13.05,16,16,0,0,0,12.25,5.31H399.14c10.25,0,19.65-8.35,20.94-18.62L481.59,27.29a16.32,16.32,0,0,0-3.78-13,16,16,0,0,0-12.26-5.32H215.78c-10.26,0-19.65,8.36-20.95,18.62l-22,174.55a1,1,0,0,1-2-.25l22-174.55c1.42-11.24,11.71-20.38,22.94-20.38H465.55a18,18,0,0,1,13.77,6,18.29,18.29,0,0,1,4.26,14.63L422.08,515c-1.42,11.23-11.71,20.37-22.94,20.37"/><path class="cls-1" d="M453.33,71.52A7.45,7.45,0,0,1,445.94,78H221.1a7.48,7.48,0,0,1-7.4-8.45l.91-6.82A7.46,7.46,0,0,1,222,56.26H446.85a7.45,7.45,0,0,1,7.39,8.44l-.91,6.82"/><path class="cls-1" d="M408.17,431a7.47,7.47,0,0,1-7.4,6.47H175.93a7.45,7.45,0,0,1-7.39-8.44l2.8-21a7.45,7.45,0,0,1,7.39-6.47H403.58a7.45,7.45,0,0,1,7.39,8.44l-2.8,21"/><path class="cls-1" d="M400.88,485a7.47,7.47,0,0,1-7.39,6.48H168.64a7.46,7.46,0,0,1-7.39-8.45l2.8-21a7.45,7.45,0,0,1,7.39-6.47H396.29a7.46,7.46,0,0,1,7.39,8.45l-2.8,21"/><path class="cls-3" d="M189.48,263.33H427.7L450.25,94.17H212Zm239.1,2H188.33a1,1,0,0,1-.76-.34,1.11,1.11,0,0,1-.24-.8L210.16,93a1,1,0,0,1,1-.87H451.4a1,1,0,0,1,.76.34,1,1,0,0,1,.24.8L429.58,264.47a1,1,0,0,1-1,.87"/><path class="cls-3" d="M428.58,265.34a1.07,1.07,0,0,1-.62-.22L210.53,94a1,1,0,0,1-.17-1.42,1,1,0,0,1,1.41-.16L429.2,263.54a1,1,0,0,1,.18,1.42,1,1,0,0,1-.8.38"/><path class="cls-3" d="M188.33,265.34a1,1,0,0,1-.84-.46,1,1,0,0,1,.29-1.39L450.86,92.33A1,1,0,1,1,452,94L188.88,265.17a1,1,0,0,1-.55.17"/><path class="cls-3" d="M176,380H286.42l13.17-98.75H189.18Zm111.29,2H174.86a1,1,0,0,1-.75-.34,1,1,0,0,1-.24-.8L187.3,280.15a1,1,0,0,1,1-.88H300.74a1,1,0,0,1,.76.35,1.08,1.08,0,0,1,.24.79L288.3,381.18a1,1,0,0,1-1,.87"/><path class="cls-3" d="M287.3,382.05a1,1,0,0,1-.72-.3L187.58,281a1,1,0,0,1,0-1.43,1,1,0,0,1,1.42,0l99,100.77a1,1,0,0,1,0,1.41,1,1,0,0,1-.71.29"/><path class="cls-3" d="M174.86,382.05a1,1,0,0,1-.78-.38,1,1,0,0,1,.16-1.41L300.11,279.5a1,1,0,0,1,1.41.15,1,1,0,0,1-.15,1.42L175.49,381.84a1.06,1.06,0,0,1-.63.21"/><path class="cls-3" d="M301.94,380H412.36l13.16-98.76H315.12Zm111.3,2H300.8a1,1,0,0,1-1-1.14l13.44-100.76a1,1,0,0,1,1-.88H426.67a1,1,0,0,1,.76.35,1,1,0,0,1,.24.79L414.24,381.18a1,1,0,0,1-1,.87"/><path class="cls-3" d="M413.24,382.05a1,1,0,0,1-.72-.3L313.51,281a1,1,0,0,1,0-1.43,1,1,0,0,1,1.42,0l99,100.77a1,1,0,0,1,0,1.41,1,1,0,0,1-.7.29"/><path class="cls-3" d="M300.79,382.05a1,1,0,0,1-.78-.38,1,1,0,0,1,.16-1.41L426,279.5a1,1,0,0,1,1.41.15,1,1,0,0,1-.15,1.42L301.42,381.84a1,1,0,0,1-.63.21"/><path class="cls-3" d="M68.4,515.25l.78,14.49,9.69,1.64.86-17.09-11.33,1"/><path d="M70.14,528.89l7.78,1.31.75-14.82-9.22.79Zm8.73,3.49H78.7L69,530.74a1,1,0,0,1-.84-.94l-.79-14.5a1,1,0,0,1,.92-1l11.34-1a1,1,0,0,1,1.09,1.06l-.87,17.09a1,1,0,0,1-.37.73,1,1,0,0,1-.63.22"/><path class="cls-2" d="M79.14,556.54a68.19,68.19,0,0,1-18.54-.93,4.37,4.37,0,0,1-3.37-5.54c2.07-6.91,5.71-20,11.11-25.93l1.1,3.4,1.9-3a1.56,1.56,0,0,1,1.2-.73l3.85-.29a1.55,1.55,0,0,1,1.64,1.3l.47,2.93L80,524l3,27.89a4.32,4.32,0,0,1-3.93,4.68"/><path d="M79.05,555.54l.09,1-.09-1a3.34,3.34,0,0,0,3-3.6L79.45,528l0,.07a1,1,0,0,1-1.05.62,1,1,0,0,1-.88-.84L77,524.92a.55.55,0,0,0-.58-.45l-3.85.29a.56.56,0,0,0-.42.26l-1.9,3.05a1,1,0,0,1-1.81-.22L68,526.2c-4.29,5.77-7.4,16.22-9.31,22.67l-.45,1.49a3.3,3.3,0,0,0,.35,2.69,3.35,3.35,0,0,0,2.25,1.57A66.64,66.64,0,0,0,79.05,555.54Zm-5.7,2.26a69.48,69.48,0,0,1-12.94-1.21,5.36,5.36,0,0,1-4.14-6.81l.44-1.49c2.13-7.17,5.7-19.17,10.89-24.83a1,1,0,0,1,1.7.37l.43,1.34.76-1.21a2.52,2.52,0,0,1,2-1.2l3.85-.29a2.54,2.54,0,0,1,2.57,1.62l.21-.51a1,1,0,0,1,1.07-.61,1,1,0,0,1,.86.88l3.06,27.9a5.38,5.38,0,0,1-4.85,5.8c-1.63.15-3.61.25-5.88.25"/><path d="M70.33,553a39,39,0,0,1-10.59-1.36,1,1,0,0,1-.7-1.23,1,1,0,0,1,1.24-.7c9.34,2.63,19.36.36,19.46.34a1,1,0,0,1,.45,1.95,46.93,46.93,0,0,1-9.86,1"/><path d="M75.42,542.3h0l-9.15-.16a1,1,0,0,1,0-2h0l9.14.16a1,1,0,0,1,0,2"/><path class="cls-3" d="M114.43,509.88l.39,21.11,11.73.59,1.61-21-13.73-.7"/><path d="M115.81,530l9.82.5,1.44-19-11.62-.58Zm10.74,2.56h0l-11.72-.6a1,1,0,0,1-1-1l-.4-21.11a1,1,0,0,1,.31-.74,1,1,0,0,1,.75-.28l13.73.69a1,1,0,0,1,.95,1.08l-1.61,21a1,1,0,0,1-1,.93"/><path class="cls-2" d="M111.16,542.71a4.23,4.23,0,0,0,3.06,4.35c6.66,1.91,21.67,6.17,26,7,5.58,1.12,12.58-.26,15.71-3.4s-6.09-11.47-10.51-14.56c-6.57-4.59-12.66-13.31-15.38-13.83s-8.21,7.17-8.21,7.17l-8.16-3.93a102.94,102.94,0,0,0-2.48,17.16"/><path d="M112.17,542.77a3.26,3.26,0,0,0,2.33,3.33c6.35,1.81,21.6,6.15,25.89,7,5.37,1.07,12-.33,14.8-3.12a1.22,1.22,0,0,0,.33-1.08c-.27-3.11-6.39-8.93-10.71-11.95a63.71,63.71,0,0,1-9.26-8.55c-2.3-2.41-4.68-4.91-5.73-5.11-1.21-.22-4.73,3.31-7.2,6.76a1,1,0,0,1-1.26.32l-7-3.38A109.73,109.73,0,0,0,112.17,542.77Zm32,12.72a21.12,21.12,0,0,1-4.22-.41c-4.36-.87-19.67-5.22-26.05-7.05a5.27,5.27,0,0,1-3.78-5.39,103.22,103.22,0,0,1,2.5-17.34,1,1,0,0,1,1.41-.66l7.41,3.57c1.8-2.41,5.93-7.41,8.72-6.88,1.6.3,3.53,2.26,6.8,5.7a64.26,64.26,0,0,0,9,8.28c2.87,2,11.16,8.77,11.57,13.43a3.27,3.27,0,0,1-.92,2.67c-2.53,2.54-7.48,4.08-12.4,4.08"/><path d="M144.74,551.62c-12.49,0-29.95-8.11-30.91-8.55a1,1,0,0,1-.48-1.34,1,1,0,0,1,1.34-.48c.29.13,29.12,13.52,38,6.24a1,1,0,1,1,1.27,1.56c-2.26,1.85-5.55,2.57-9.26,2.57"/><path d="M130.85,538.2a1,1,0,0,1-.79-.37,1,1,0,0,1,.15-1.42l6.23-5.08a1,1,0,0,1,1.42.15,1,1,0,0,1-.15,1.41L131.48,538a1,1,0,0,1-.63.23"/><path class="cls-2" d="M76.22,369.39s-10.8,66.47-13.84,89.07,1.46,59.41,1.46,59.41l18.15,0s3.47-44.31,5.44-56.56c0,0,8.49-16.32,11.5-31.1s11.93-37.92,11.93-37.92.34,117.75.48,127c0,0,14.16,1.35,19.41-1.6,0,0,11.18-42.37,11.06-65.72s-.38-81.84-.38-81.84l-65.21-.72"/><path class="cls-3" d="M84.1,462.11h0l-5.53-.27a1,1,0,1,1,.1-2l5.53.27a1,1,0,0,1,.95,1.06,1,1,0,0,1-1,.95"/><path class="cls-3" d="M121.79,498.26h-.08a1,1,0,0,1-.93-1.07c.76-11,13.72-29.92,14.27-30.72a1,1,0,1,1,1.65,1.13c-.13.19-13.19,19.31-13.91,29.73a1,1,0,0,1-1,.94"/><path class="cls-3" d="M143.61,272.44l91.79,15-13.14,9.38s-69.32,11.15-92,4.44l13.36-28.8"/><path d="M131.66,300.59c22.63,5.72,85.85-4.06,90.21-4.74l11-7.83L144.2,273.55Zm20.54,3.82c-8.95,0-16.84-.61-22.24-2.2a1,1,0,0,1-.63-.55,1,1,0,0,1,0-.84L142.7,272a1,1,0,0,1,1.07-.57l91.79,15a1,1,0,0,1,.82.77,1,1,0,0,1-.4,1l-13.14,9.38a1,1,0,0,1-.43.18c-2.16.35-41.55,6.61-70.21,6.61"/><path d="M76.52,372.21l65.63,2.94L140,304.53l9.37,2.38,11.41-35.32s-50.08-7.87-84.13-6.95a31.66,31.66,0,0,0-21.76,9.49C46.88,282.27,36,294.72,33,304.8l35.84,13.54,3.41-5s5.75,31.22,4.25,58.9"/><path d="M72.27,314.31a1,1,0,0,1-.42-.09,1,1,0,0,1-.49-1.34l6.31-13.52a1,1,0,0,1,1.83.85l-6.32,13.52a1,1,0,0,1-.91.58"/><path class="cls-3" d="M249.5,275.55l-22.84-23.91L2.7,466.47c-2.38,2.29-2.27,6.67.38,10.71a46.85,46.85,0,0,0,11.8,12.35c3.91,2.83,8.27,3.13,10.66.85l224-214.83"/><path d="M226.63,253.06,3.4,467.2c-2,2-1.83,5.84.52,9.43a46.09,46.09,0,0,0,11.55,12.08c3.47,2.52,7.33,2.91,9.37.94L248.07,275.52ZM21.42,492.9a12.48,12.48,0,0,1-7.13-2.56,48,48,0,0,1-12-12.61c-2.89-4.41-3-9.34-.24-12L226,250.91a.94.94,0,0,1,.72-.27,1,1,0,0,1,.71.31l22.84,23.91a1,1,0,0,1,0,1.42l-224,214.83a6.82,6.82,0,0,1-4.81,1.79"/><path d="M53,432.36a1,1,0,0,1-.72-.31,1,1,0,0,1,0-1.42L147,339.83a1,1,0,0,1,1.39,1.45l-94.66,90.8a1,1,0,0,1-.7.28"/><path d="M169.33,320.79a1,1,0,0,1-.72-.3,1,1,0,0,1,0-1.43l41.09-39.41a1,1,0,0,1,1.4,1.46L170,320.52a1,1,0,0,1-.7.27"/><path d="M33.73,467.56a1,1,0,0,1-.73-.31,1,1,0,0,1,0-1.42l157.39-151a1,1,0,1,1,1.39,1.44l-157.39,151a1,1,0,0,1-.69.28"/><path class="cls-1" d="M289.24,226.73l0,0a45.91,45.91,0,0,1-7.6-6.62A26.6,26.6,0,0,1,277,214l-50.35,37.6a52.36,52.36,0,0,0,22.84,23.91l39.71-48.79"/><path d="M289.24,226.73l0,0ZM277,214l-50.35,37.6a52.36,52.36,0,0,0,22.84,23.91l39.68-48.76a46.38,46.38,0,0,1-7.6-6.62A26.6,26.6,0,0,1,277,214Zm-.58,3a28.33,28.33,0,0,0,3.7,4.57,58.76,58.76,0,0,0,6.13,5.63L249,273a50.48,50.48,0,0,1-19.79-20.73L276.46,217"/><path d="M282.32,221.15a35.51,35.51,0,0,0,6.89,5.61l24.27-29.83c2.14-2.63-2.93-7.94-5.65-5.91L277,214a35.82,35.82,0,0,0,5.28,7.14"/><path class="cls-3" d="M230.16,292.78s22.09.33,12.64-17.13l-12.64,17.13"/><path d="M242.64,277.56l-10.41,14.11c3.08-.26,8.8-1.26,11-4.9C244.62,284.48,244.42,281.38,242.64,277.56Zm-12.36,16.22h-.14a1,1,0,0,1-.88-.55,1,1,0,0,1,.09-1.05L242,275.05a1,1,0,0,1,.89-.41,1.05,1.05,0,0,1,.81.53c2.79,5.16,3.22,9.42,1.26,12.64-3.5,5.78-13.34,6-14.67,6"/><path class="cls-3" d="M37,306.52l26.62,9.83S59.1,358,87.86,372.26c0,0,15.58-1.92,21,7.33,0,0-10.91-.49-20,2S25.26,368.44,37,306.52"/><path d="M86.35,382.88c-7.15,0-21.67-4.37-33.59-15.36-11-10.15-22.86-29-16.77-61.18a1,1,0,0,1,1.17-.81,1,1,0,0,1,.8,1.18C32,338,43.48,356.24,54.12,366c13.93,12.84,30.48,15.69,34.41,14.6a72.42,72.42,0,0,1,18.34-2.09c-5.78-6.81-18.75-5.31-18.89-5.29a1,1,0,0,1-.57-.1c-12-6-20.15-17.49-23.45-33.26a77.3,77.3,0,0,1-1.35-22.15,1,1,0,0,1,2,.22c0,.4-4.06,39.32,23.43,53.26,2.34-.23,16.37-1.24,21.66,7.86a1,1,0,0,1,0,1,1,1,0,0,1-.91.48c-.11,0-10.86-.46-19.73,2a10.74,10.74,0,0,1-2.71.29"/><path d="M117.55,233.45h0a4.35,4.35,0,0,0,.63,3.07c.84,1.68,1.92,2.33,2.17,2.3a4.51,4.51,0,0,0-.63-3.08C118.87,234.11,117.83,233.45,117.55,233.45Zm2.77,7.39a3,3,0,0,1-1.9-.78,8.77,8.77,0,0,1-3-5.83,2.3,2.3,0,0,1,4-2,8,8,0,0,1,2,2.63c1.32,2.6,1.21,5-.28,5.79a1.87,1.87,0,0,1-.89.22"/><path class="cls-3" d="M105.77,270.23a24.08,24.08,0,0,1-13.29-4c7.85-2.77,5.09-14.72,5.09-14.72-5.93-13.07-1.32-21.39,5.69-23.12,9.94-2.46,11.2,3.32,11.2,3.32.76,1.55,2.52,5.17,3.2,5.59.84.5,2.83,1,3.15,1.44s.14,1.76-1.11,2.92c0,0,3.62,7.56,2.42,9.84s-9.8,4.17-9.8,4.17-2,9.19,3.57,12.34a24,24,0,0,1-6.82,2,25.51,25.51,0,0,1-3.3.23"/><path d="M94.58,266.3a23,23,0,0,0,4.1,1.79,22.7,22.7,0,0,0,10.26.91,23,23,0,0,0,4.94-1.26c-4.28-4.06-2.62-12-2.54-12.31a1,1,0,0,1,.77-.77c3.91-.87,8.51-2.52,9.12-3.67s-.8-5.51-2.44-8.93a1,1,0,0,1,.23-1.17,2.74,2.74,0,0,0,.93-1.57c-.26-.13-.74-.31-1.07-.43a11,11,0,0,1-1.74-.77c-.61-.37-1.36-1.43-3.58-6a.88.88,0,0,1-.07-.23,4,4,0,0,0-1.83-2.21c-1.81-1.1-4.63-1.22-8.16-.35a9.61,9.61,0,0,0-6.42,5.23c-2,4.19-1.53,10.05,1.41,16.5l.06.19C98.66,251.74,101,262.31,94.58,266.3Zm11.19,4.93A25.11,25.11,0,0,1,91.92,267a1,1,0,0,1-.43-1,1,1,0,0,1,.66-.83c6.59-2.31,4.68-12.38,4.46-13.44-3.15-7-3.62-13.4-1.33-18.11a11.53,11.53,0,0,1,7.74-6.31c4.15-1,7.43-.82,9.75.62a6.06,6.06,0,0,1,2.64,3.32c1.85,3.81,2.56,4.89,2.82,5.13a12.51,12.51,0,0,0,1.35.55,4.64,4.64,0,0,1,2,1.09c.6.77.46,2.33-.71,3.74,1,2.15,3.33,7.8,2.1,10.11s-7.43,4-9.8,4.53c-.31,2-.91,8.32,3.18,10.63a1,1,0,0,1-.07,1.79,24.69,24.69,0,0,1-7.1,2.1,25.3,25.3,0,0,1-3.44.24"/><path d="M97.68,224.78c2.5-.72,5.43-.57,6.63-1.1,1.94-.85,1.69-3.15,4.49-3.62,2.46-.41,4.81-.15,6.22,1.64a6.31,6.31,0,0,1,.63,1c2.41,5.19-.06,8-1.19,9,0,0-7.23,4.28-8.44,5.43a6.52,6.52,0,0,0-1.3,6.82,1,1,0,0,1-.38,1.13h0a1,1,0,0,1-1.36-.19c-1-1.27-3.33-3.71-4.8-3-1.79.89-2,5.79,1.9,6.29a1,1,0,0,1,.83,1.46,2.85,2.85,0,0,1-3.32,1.82s-8.63-5.09-10.25-12.64,7-13.1,10.36-14.06"/><path d="M112.38,235.45a.73.73,0,0,0-.3.06c-.27.13-.44.51-.48,1a4.61,4.61,0,0,0,.53,2.33,4.7,4.7,0,0,0,1.57,1.81,1.21,1.21,0,0,0,1.12.21,1.2,1.2,0,0,0,.49-1,4.56,4.56,0,0,0-.54-2.34,4.45,4.45,0,0,0-1.57-1.8A1.6,1.6,0,0,0,112.38,235.45Zm2.16,7.53a3.58,3.58,0,0,1-1.89-.58,6.94,6.94,0,0,1-3.06-6,2.89,2.89,0,0,1,4.66-2.37,6.88,6.88,0,0,1,3.06,6,3.14,3.14,0,0,1-1.57,2.67,2.61,2.61,0,0,1-1.2.28"/><path d="M115.6,237.78a1,1,0,0,1-.42-.08,1,1,0,0,1-.51-1.33,2.37,2.37,0,0,1,2.16-1.46,1,1,0,0,1-.08,2,.78.78,0,0,0-.24.27,1,1,0,0,1-.91.59"/><path d="M102.25,242.51a1,1,0,0,1-.92-.59,1,1,0,0,1,.49-1.33l8.37-3.85a1,1,0,1,1,.84,1.82l-8.36,3.86a1.06,1.06,0,0,1-.42.09"/><path class="cls-4" d="M468.71,527.37s14.35-4.49,37.87-50.12c19.85-38.52,2.16-75.75-1.41-100.65a2.43,2.43,0,0,0-4.71-.49c-5.94,16.73-15.52,47.15-14,65.89,2.23,27-17.78,85.37-17.78,85.37"/><path class="cls-4" d="M484.27,502.42,489.39,462a92.19,92.19,0,0,0-8.27-51.32,92.27,92.27,0,0,1-2.4-74l8.21-20.52a2.49,2.49,0,0,0-4.14-2.64L471.26,326.2a109.38,109.38,0,0,0-23.14,106.73l21.26,66.63,14.89,2.86"/><path class="cls-1" d="M486.74,484h-.13a1,1,0,0,1-.87-1.13l2.65-20.95a91.08,91.08,0,0,0-1.56-31.74,1,1,0,0,1,2-.45,93.13,93.13,0,0,1,1.6,32.44l-2.65,20.95a1,1,0,0,1-1,.89"/><path class="cls-4" d="M477.68,503.75l-17.74-45.32a45,45,0,0,0-28.81-26.72L419,428.05a2.79,2.79,0,0,0-2.48,4.88l7.44,5.79a34,34,0,0,1,13.07,26.14,34.11,34.11,0,0,0,5,17.05l12,19.72,23.63,2.12"/><path class="cls-1" d="M475.06,483.47H475a1,1,0,0,1-.9-1.1c2.69-28.86-3.11-47.46-8.22-63.87-2.37-7.6-4.61-14.79-5.95-22.52-6.29-36.56,15.17-68.28,15.39-68.6a1,1,0,0,1,1.66,1.14c-.21.31-21.22,31.38-15.06,67.11,1.3,7.61,3.53,14.73,5.88,22.28,5.17,16.58,11,35.38,8.3,64.65a1,1,0,0,1-1,.92"/><path class="cls-1" d="M467.53,470.13a1,1,0,0,1-1-.7c-2.27-6.89-7.42-14.06-11.35-18.87a1,1,0,0,1,.15-1.41,1,1,0,0,1,1.41.14c4,4.94,9.34,12.33,11.71,19.51a1,1,0,0,1-.64,1.28,1.19,1.19,0,0,1-.32.05"/><path class="cls-1" d="M498.68,464.12l-.17,0a1,1,0,0,1-.82-1.15c4.83-28.55,3.16-72.51,3.14-72.95a1,1,0,0,1,1-1,1,1,0,0,1,1,1c0,.45,1.7,44.61-3.16,73.36a1,1,0,0,1-1,.84"/><path class="cls-1" d="M456.33,487.79a1,1,0,0,1-1-1c-.33-35.4-28.58-50.92-28.87-51.07a1,1,0,0,1-.41-1.36,1,1,0,0,1,1.36-.41c.29.15,29.58,16.25,29.93,52.82a1,1,0,0,1-1,1h0"/><path class="cls-1" d="M460.18,421.18a1,1,0,0,1-.79-.39c-7.75-9.94-11.08-23-11.21-23.52a1,1,0,0,1,.73-1.22,1,1,0,0,1,1.22.73c0,.13,3.37,13.17,10.85,22.78a1,1,0,0,1-.8,1.62"/><path class="cls-2" d="M496.67,556.4H450.3A10.41,10.41,0,0,1,439.88,546V492.79h67.2V546a10.41,10.41,0,0,1-10.41,10.42"/><path class="cls-3" d="M500.49,505h-54a1,1,0,0,1,0-2h54a1,1,0,1,1,0,2"/></g></g></svg>