<svg xmlns="http://www.w3.org/2000/svg" viewBox="0 0 556.19 557.7"><defs><style>.cls-1{fill:#caddff;}.cls-2{fill:#fff;}.cls-3{fill:#99b9ff;}.cls-4{fill:#5479f7;}</style></defs><title>Ativo 3</title><g id="Camada_2" data-name="Camada 2"><g id="Camada_1-2" data-name="Camada 1"><path class="cls-1" d="M7.35,456.53C23.68,496.25,61.86,515,86.26,527.05c96.18,47.33,242.29,41.78,347.48-44.57,24.62-20.21,146-126.07,117.71-269.41C526.5,86.35,400.9,12.84,295.13,3.08,207.49-5,93.05,27,52.59,104.28c-25.43,48.61,19.08,67.63-15.68,174.2-22,67.42-49.54,129.46-29.56,178"/><path class="cls-2" d="M38.2,355.55,35.33,375.7l-7.35,0-.34-19.83,10.56-.35"/><path d="M28.66,356.87,29,374.72l5.48,0L37,356.59ZM28,376.73a1,1,0,0,1-1-1l-.35-19.83a1,1,0,0,1,1-1l10.57-.36a1,1,0,0,1,.78.33,1,1,0,0,1,.24.82l-2.87,20.15a1,1,0,0,1-1,.87l-7.35,0h0"/><path class="cls-3" d="M35.57,395a68.24,68.24,0,0,1-12.9-.08,3.55,3.55,0,0,1-3.18-4.11c.9-5.47,3.39-15.12,7.3-19.55L28.73,374l1.15-2.86c.18-.3,5.05-.51,5.15.07l.3,2.79,2.76-3.1-.15,10.17a15.1,15.1,0,0,0,.32,3.35l.72,3.51a6.69,6.69,0,0,1-1.58,5.94A3.26,3.26,0,0,1,35.57,395"/><path class="cls-2" d="M90.93,357.34l2.58,23.5,9.89,2.07-.61-27.55-11.86,2"/><path d="M94.43,380l7.93,1.67-.55-25.13L92,358.18Zm9,3.92a1.33,1.33,0,0,1-.21,0l-9.88-2.07a1,1,0,0,1-.8-.87l-2.58-23.5a1,1,0,0,1,.83-1.1l11.87-2a1,1,0,0,1,.8.22,1,1,0,0,1,.37.75l.6,27.55a1,1,0,0,1-.36.79,1,1,0,0,1-.64.24"/><path class="cls-3" d="M89.33,392.05c-.22-4.12-.22-11.71,2.28-15.36l7.91,2.81v-1.68a1,1,0,0,1,.89-1l4.4-.25a9.5,9.5,0,0,1,4.79,1c4.43,2.18,17.92,7.77,19.79,14.05a3,3,0,0,1-2.83,3.77c-4.44.12-15.11.26-34.26-.39a3.08,3.08,0,0,1-3-2.91"/><path d="M92.29,195s15.89,107,12.87,171.9l-4.42.44a47.55,47.55,0,0,1-7.16.18l-4.18-.21c-18.84-109.84-23.61-115-27.28-127.13,0,0-21,99.86-21.88,123.6,0,0-10.2,1-14.26-.44-2.18-22.91-2.81-46.63-2.92-61.51-.32-42.61,3.76-62,6-71.15,2.05-8.42,4.25-15.28,5.86-19.91l5.36-15.3,52-.47"/><path class="cls-1" d="M62.14,244.63H62a1,1,0,0,1-.79-1.18l2.33-12a.31.31,0,0,1,0-.08,7.32,7.32,0,0,1,5.62-5.26l2.2-.46a1,1,0,1,1,.4,2l-2.2.46a5.34,5.34,0,0,0-4.08,3.79l-2.32,12a1,1,0,0,1-1,.8"/><path class="cls-1" d="M34.15,225.24a1,1,0,0,1-.17-2c9.53-1.59,13-7.76,14.08-10.33a1,1,0,1,1,1.86.77c-1.19,2.88-5.09,9.79-15.6,11.54h-.17"/><path class="cls-1" d="M92.13,218.86a1,1,0,0,1-.4-.09A14.17,14.17,0,0,1,83,208.16a1,1,0,0,1,.88-1.11,1,1,0,0,1,1.11.87,12.24,12.24,0,0,0,7.56,9,1,1,0,0,1,.53,1.32,1,1,0,0,1-.93.61"/><path class="cls-3" d="M24.18,119.11a27.74,27.74,0,0,1,12.42-7.38c7.71-1.78,17.6-2.81,26.41-3.41l5-.53a57.46,57.46,0,0,1,7.27-.09c1.58-.06,3-.1,4.27-.13,3.89-.09,10.14,1.17,13.47,3.2a53,53,0,0,1,9.07,7.11c10.86,8.74,16.35,20,23.12,20.66,2.76.27,8.3-16.44,10.42-23.2a7.09,7.09,0,0,1,10.47-4c.2.12.38.24.55.36,5,3.59,3.48,11.67,3.48,11.67s-2.74,45-15.33,46.82c-14,2-35.37-15.08-39.77-16.25l3.28,19.3,5.49,27c.8,5.24-6,6.91-9.77,6.87-.12,0-1.33-9.46-1.45-9.48-12.19-2.51-27.91,4.74-40.2,11.25-15.78,8.35-30.06,2.74-31.17-1.55S23.07,177,23.07,177L6.52,175.62a6,6,0,0,1-5.51-6c0-21.41,15-41.3,23.17-50.52"/><path d="M24.18,119.12ZM72.4,108.63c-1.42,0-2.86.06-4.31.16l-5,.53a174.61,174.61,0,0,0-26.3,3.39,27,27,0,0,0-11.89,7.07c-8.54,9.68-22.88,29-22.92,49.86a5,5,0,0,0,4.59,5L23.16,176a1,1,0,0,1,.69.37,1,1,0,0,1,.22.75c-.82,7.21-2.75,26.67-1.88,30,.21.79,1.37,2.13,4,3.28,5.61,2.47,15.31,3.15,25.73-2.36,12.51-6.63,28.47-13.9,40.88-11.35.75.15.75.15,1.51,5.51.18,1.32.41,3,.56,3.93,2.56-.13,5.66-1,7.13-2.68a3.56,3.56,0,0,0,.83-3l-5.49-27L94,154.16a1,1,0,0,1,.31-.91,1,1,0,0,1,.94-.23c1.35.36,3.81,1.87,7.23,4,8.34,5.12,22.31,13.69,32.15,12.27,9.66-1.39,13.71-33.6,14.46-45.9a.5.5,0,0,1,0-.12c0-.08,1.35-7.5-3.08-10.66-.15-.1-.31-.22-.49-.32a6,6,0,0,0-5.28-.52,6.16,6.16,0,0,0-3.71,3.91c-7.61,24.28-10.31,24-11.46,23.9-4.35-.43-7.95-4.53-12.52-9.7a89.42,89.42,0,0,0-11.14-11.17l-.07-.06a52.91,52.91,0,0,0-8.89-7c-3.17-1.93-9.23-3.14-12.93-3-1.25,0-2.68.07-4.26.13h-.08C74.3,108.65,73.35,108.63,72.4,108.63ZM35.82,214.28a26.24,26.24,0,0,1-10.46-2c-2.81-1.25-4.68-2.93-5.12-4.62-1-4,1.13-24.4,1.72-29.74L6.44,176.63a7,7,0,0,1-6.44-7c0-21.49,14.69-41.29,23.42-51.18a28.89,28.89,0,0,1,12.95-7.7,176.26,176.26,0,0,1,26.57-3.43l5-.53a57.25,57.25,0,0,1,7.39-.09c1.56-.06,3-.1,4.23-.13,4-.08,10.44,1.16,14,3.35a53.86,53.86,0,0,1,9.22,7.21,92.78,92.78,0,0,1,11.35,11.38c4.25,4.82,7.61,8.63,11.15,9,1.3-.51,4.78-7.73,9.41-22.49a8.11,8.11,0,0,1,4.92-5.19,8,8,0,0,1,7,.69,6.75,6.75,0,0,1,.59.4c5.3,3.77,4.06,11.72,3.9,12.6-.31,5-3.21,45.84-16.18,47.7C124.4,172.77,110,164,101.46,158.7c-2-1.23-3.81-2.35-5.12-3l3,17.48,5.48,27a5.57,5.57,0,0,1-1.28,4.68c-2.35,2.72-7.08,3.39-9.48,3.39-.93,0-.93,0-1.72-5.68-.2-1.41-.43-3.08-.58-3.95-11.7-2-26.89,4.93-38.88,11.28a36.42,36.42,0,0,1-17,4.44"/><path class="cls-2" d="M39.18,141.64a26,26,0,0,1-5,5.12c-6.45,4.93-21.82,16.84-25.49,21C4,173,1.69,175,7.52,186c9.52,18,35.19-35,35.19-35s9.72.42,10.72-8.18c0,0,5.07.25,7-.93a2,2,0,0,0-1.1-3.58l-14-.68A5.82,5.82,0,0,0,40.43,140l-1.25,1.68"/><path d="M39.18,141.64h0Zm5.92-3a4.78,4.78,0,0,0-3.86,2L40,142.24a26.85,26.85,0,0,1-5.22,5.32C28.34,152.47,13,164.33,9.41,168.38l-.42.46c-4.3,4.81-5.91,6.62-.58,16.72,1.15,2.17,2.53,3.23,4.22,3.19,8.84-.16,24.06-27.64,29.17-38.21a1,1,0,0,1,1-.57c.36,0,8.8.27,9.68-7.29a1,1,0,0,1,1-.89c1.84.09,5.22,0,6.44-.78a.93.93,0,0,0,.35-1.06.86.86,0,0,0-.93-.65l-14-.69ZM12.55,190.76c-2.43,0-4.42-1.43-5.91-4.27-5.76-10.9-4-13.54.86-19l.41-.46c3.73-4.18,19.16-16.14,25.62-21.08a25.07,25.07,0,0,0,4.85-4.91l1.25-1.7a6.79,6.79,0,0,1,5.76-2.75l14,.69a2.88,2.88,0,0,1,2.82,2.13A3,3,0,0,1,61,142.73c-1.67,1-5,1.11-6.67,1.09-1.25,6.36-7.31,8.11-11,8.17-2.48,5-19.44,38.57-30.67,38.77h-.11"/><path class="cls-3" d="M94,207.19c11.83-.79,13.82-6.86-1.45-9.49L94,207.19"/><path class="cls-4" d="M133.84,83.47l8.75,42.09c.64,3.08,2.71,5.23,4.61,4.79l3.14-.72c1.9-.44,2.93-3.3,2.29-6.38l-8.75-42.1-10,2.32"/><path d="M135,84.23l8.55,41.12a5.89,5.89,0,0,0,2.18,3.73,1.6,1.6,0,0,0,1.22.29l3.13-.73c1.18-.27,2.1-2.46,1.54-5.19L143.1,82.36Zm11.67,47.18a3.7,3.7,0,0,1-2-.64,7.8,7.8,0,0,1-3.06-5l-8.75-42.09a1,1,0,0,1,.75-1.18l10-2.31a1,1,0,0,1,.77.13,1,1,0,0,1,.44.64l8.75,42.1c.77,3.66-.57,7-3,7.55l-3.14.73a3.63,3.63,0,0,1-.73.08"/><path class="cls-2" d="M136.68,125.74a3.22,3.22,0,0,1-1.83-4c1.58-4.82,2.69-9.38.87-12-1.56-2.28-3-4.54-2.67-7.22l.52-4c.09-.64-.1-3,1.64-2.54,1.31.31,1.86,1.46,2.62,6.53a5.94,5.94,0,0,0,3.1,4.77,5.8,5.8,0,0,1-.07-1.29,6.88,6.88,0,0,1,3.1-5.37c2.26-1.51,6.06-3.52,8.31-1,1.56,1.76,2.17,5.72-.57,9.58-.64.9-4.23,4.82-4.23,4.82-.69.93-2.19,10.36-2.19,10.36-.91,5-4.66,3-8.6,1.38"/><path d="M134.83,96.92h0a4.11,4.11,0,0,0-.2,1.23,4.58,4.58,0,0,1,0,.49l-.52,4c-.31,2.23.85,4.11,2.51,6.53,2.17,3.14.75,8.29-.75,12.88a2.25,2.25,0,0,0,1.27,2.76l.75.31c2.1.88,4.27,1.79,5.36,1.2a2.94,2.94,0,0,0,1.11-2.15c.57-3.59,1.64-9.81,2.37-10.78l.07-.08c1-1.08,3.65-4,4.15-4.73,2.6-3.66,1.77-7,.64-8.33-1.3-1.45-3.66-1.06-7,1.17a5.91,5.91,0,0,0-2.66,4.59,4.49,4.49,0,0,0,.06,1.06,1,1,0,0,1-1.51,1,6.88,6.88,0,0,1-3.57-5.48c-.76-5-1.27-5.55-1.86-5.69Zm7.48,31.61a15,15,0,0,1-5.26-1.55l-.75-.31a4.25,4.25,0,0,1-2.4-5.23c1.44-4.44,2.57-8.85,1-11.12-1.46-2.12-3.29-4.77-2.85-7.93l.52-4a2.51,2.51,0,0,0,0-.31,3.53,3.53,0,0,1,1-2.76,2.1,2.1,0,0,1,1.81-.31c2,.48,2.62,2.26,3.39,7.36a5.55,5.55,0,0,0,1.1,2.81,7.94,7.94,0,0,1,3.48-5.39c5.36-3.58,8.18-2.43,9.61-.83,1.94,2.18,2.42,6.71-.5,10.83-.63.89-3.69,4.24-4.25,4.86a76.3,76.3,0,0,0-2,9.9,4.66,4.66,0,0,1-2.14,3.58,3.79,3.79,0,0,1-1.82.43"/><path class="cls-4" d="M144.65,84.88l8,38.37c.64,3.08-.39,5.94-2.29,6.37l-3.14.73c-1.9.44-4-1.71-4.61-4.79l-8.2-39.44,10.26-1.24"/><path d="M135.59,87l8,38.37a5.89,5.89,0,0,0,2.18,3.73,1.59,1.59,0,0,0,1.22.28l3.13-.72c1.18-.27,2.1-2.47,1.54-5.19L143.86,86Zm11.11,44.42a3.77,3.77,0,0,1-2-.63,7.85,7.85,0,0,1-3.06-5L133.4,86.33a1,1,0,0,1,.86-1.2l10.27-1.25a1,1,0,0,1,1.11.8l8,38.37c.77,3.66-.57,7-3.05,7.56l-3.13.72a3.63,3.63,0,0,1-.73.08"/><path class="cls-2" d="M144.39,110a10.36,10.36,0,0,0,6.69-2c2.78-1.89,2.75-6.62,1.19-8.37-2.24-2.51-6-.53-8.28,1-1.83,1.22-3.56,3.63-3.52,5.32.06,2.57,1,3.78,3.92,4.07"/><path d="M149.53,99.4c-1.56,0-3.46,1-5,2s-3.11,3.21-3.08,4.46c.05,2,.48,2.84,3,3.09a8.87,8.87,0,0,0,4.69-1,1,1,0,0,1,1.45,1l.25-.32c2.59-3.68,1.77-7.06.64-8.33a4.16,4.16,0,0,0-.36-.34A2.53,2.53,0,0,0,149.53,99.4Zm.61,12.71a1,1,0,0,1-.78-1.65l.57-.68a10.91,10.91,0,0,1-5.64,1.18c-3.31-.33-4.75-1.84-4.83-5-.05-2.19,2-4.86,4-6.18,3.89-2.59,6.94-3,9-1.34,0,0,.41.37.56.53,1.93,2.17,2.41,6.7-.5,10.83-.07.09-.37.5-1.61,2a1,1,0,0,1-.77.36"/><path class="cls-2" d="M149.09,41.14,111.87,54.81,96.29,64.06l-7.07,7.11,0,.06c-1.34,1.2-1.73,4.71-.9,8.61s2.62,6.87,4.31,7.48h0l8.88,3.5,17.86,2,39.9-3,43,20.14.32.09c-10.81-5.2-22-24.56-27.18-49.08s-2.94-46.63,4.8-55.74h0L149.48,40.68l-.39.46"/><path d="M159.18,88.76a1,1,0,0,1,.42.1l35,16.39C186.05,96.36,178.4,80,174.36,61.13s-3.69-36.68.45-48.26L150.24,41.34a1,1,0,0,1-.22.2,1,1,0,0,1-.58.54L112.3,55.71,96.92,64.85l-7,7a.2.2,0,0,1-.09.09c-.89.81-1.4,3.77-.57,7.65s2.49,6.33,3.67,6.75a1.19,1.19,0,0,1,.25.13l8.47,3.34,17.64,1.94,39.8-3ZM202.52,111a1.35,1.35,0,0,1-.29,0l-.32-.1-.13-.05L159,90.79l-39.63,3h-.19l-17.86-2a1.1,1.1,0,0,1-.26-.06l-8.88-3.5a.74.74,0,0,1-.26-.15c-2-1-3.77-4.13-4.61-8.06-.91-4.29-.46-8,1.15-9.52l0,0,7.11-7.16a.7.7,0,0,1,.2-.15l15.58-9.26.16-.08,37.05-13.6a1.58,1.58,0,0,1,.15-.24L179.38,4.51a1,1,0,0,1,1.38-.13,1.07,1.07,0,0,1,.38.69,1.05,1.05,0,0,1-.23.75c-7.78,9.17-9.63,31.23-4.58,54.89S192.08,103.86,203,109.1a1,1,0,0,1,.49,1.27,1,1,0,0,1-.93.64"/><path class="cls-2" d="M221.35,51.29c6.46,30.31,1.39,57-11.33,59.7s-28.27-19.75-34.73-50.06-1.39-57,11.33-59.71S214.89,21,221.35,51.29"/><path d="M188.77,2a9.68,9.68,0,0,0-1.94.2c-2.81.6-5.29,2.5-7.36,5.68-6.62,10.17-7.87,30.91-3.2,52.84,6.34,29.72,21.37,51.83,33.54,49.29,2.82-.59,5.29-2.5,7.36-5.68,6.62-10.16,7.88-30.9,3.2-52.84C214.37,23.33,200.55,2,188.77,2Zm19.16,110.21c-6,0-12.42-4.63-18.45-13.31-6.63-9.57-12-23-15.17-37.77-4.78-22.42-3.42-43.76,3.48-54.34,2.37-3.65,5.27-5.85,8.63-6.55,6.56-1.38,13.93,3.27,20.74,13.08,6.63,9.56,12,23,15.17,37.76,4.78,22.43,3.42,43.76-3.48,54.35-2.36,3.64-5.27,5.84-8.63,6.54a11,11,0,0,1-2.29.24"/><path class="cls-3" d="M196.93,56.44c1.42,6.63.31,12.49-2.48,13.06s-6.18-4.32-7.6-11-.3-12.49,2.48-13.07,6.19,4.33,7.6,11"/><path d="M189.8,46.43a1.15,1.15,0,0,0-.26,0,1.89,1.89,0,0,0-1.11.9c-1.1,1.69-1.71,5.73-.59,11,1.34,6.31,4.49,10.58,6.41,10.18a1.85,1.85,0,0,0,1.11-.9c1.1-1.69,1.71-5.73.59-11C194.66,50.6,191.72,46.43,189.8,46.43ZM194,70.56c-3.25,0-6.66-4.87-8.14-11.81-1.08-5.1-.74-10,.87-12.49a3.87,3.87,0,0,1,2.39-1.77c3.43-.72,7.21,4.33,8.79,11.74,1.09,5.1.74,10-.87,12.49a3.87,3.87,0,0,1-2.39,1.77,2.94,2.94,0,0,1-.65.07"/><path class="cls-3" d="M206.46,103.13c-10.87,0-23-18-28.23-42.81-4-18.78-2.86-36.66,2.93-45.54,2-3.08,4.46-4.94,7.3-5.54,7.57-1.58,16.14,6.12,22.95,20.59a1,1,0,0,1-1.82.86c-6.29-13.37-14.22-20.84-20.71-19.48-2.31.48-4.34,2-6,4.67-5.51,8.45-6.55,25.73-2.65,44,4.92,23.1,16.66,41.22,26.3,41.22A7.16,7.16,0,0,0,208,101c9.09-1.9,13.29-20.26,9.78-42.7a1,1,0,0,1,2-.31c3.74,23.9-1,42.82-11.37,45a9.87,9.87,0,0,1-2,.2"/><path d="M159.18,88.76a1,1,0,0,1,.42.1l35,16.39C186.05,96.36,178.4,80,174.36,61.13s-3.69-36.68.45-48.26l-25,28.93a1.07,1.07,0,0,1-.41.28L112.3,55.71,96.92,64.85l-7,7a.2.2,0,0,1-.09.09c-.89.81-1.4,3.77-.57,7.65s2.49,6.33,3.67,6.75a1.19,1.19,0,0,1,.25.13l8.47,3.34,17.64,1.94,39.8-3ZM202.52,111a1.35,1.35,0,0,1-.29,0l-.32-.1-.13-.05L159,90.79l-39.63,3h-.19l-17.86-2a1.1,1.1,0,0,1-.26-.06l-8.88-3.5a.74.74,0,0,1-.26-.15c-2-1-3.77-4.13-4.61-8.06-.91-4.29-.46-8,1.15-9.52l0,0,7.11-7.16a.7.7,0,0,1,.2-.15l15.58-9.26.16-.08,37-13.58L179.38,4.51a1,1,0,0,1,1.38-.13,1.07,1.07,0,0,1,.38.69,1.05,1.05,0,0,1-.23.75c-7.78,9.17-9.63,31.23-4.58,54.89S192.08,103.86,203,109.1a1,1,0,0,1,.49,1.27,1,1,0,0,1-.93.64"/><path class="cls-4" d="M149.18,41,180.13,5.17h0c-7.74,9.11-10,31.26-4.8,55.74S191.71,104.8,202.52,110l-.32-.09L159.25,89.8l-1-.46c-5-2.36-10.11-11.11-12.45-22.2-2.4-11.38-.58-21.58,3-25.67l.38-.44"/><path d="M149.18,41h0Zm25.63-28.16L149.94,41.69h0l-.38.43c-3.2,3.67-5.17,13.37-2.76,24.81,2.18,10.37,7.07,19.21,11.89,21.49l1,.46,35,16.36C186.05,96.36,178.4,80,174.36,61.13S170.67,24.45,174.81,12.87ZM202.52,111a1.35,1.35,0,0,1-.29,0l-.32-.1-.13-.05L157.83,90.25c-5.44-2.58-10.67-11.78-13-22.9-2.28-10.83-1-21.75,3.22-26.54l.39-.44L179.38,4.51a1,1,0,0,1,1.38-.13,1.07,1.07,0,0,1,.38.69,1.05,1.05,0,0,1-.23.75c-7.78,9.17-9.63,31.23-4.58,54.89S192.08,103.86,203,109.1a1,1,0,0,1,.49,1.27,1,1,0,0,1-.93.64"/><path d="M100.94,91.64a.94.94,0,0,1-.37-.07l-8.4-3.31a.74.74,0,0,1-.26-.15c-2-1-3.77-4.13-4.61-8.06-.91-4.29-.46-8,1.15-9.52l0,0,7.11-7.16a1,1,0,0,1,1.42,0,1,1,0,0,1,0,1.42l-7.08,7.13-.09.09c-.89.81-1.4,3.76-.57,7.64s2.49,6.33,3.67,6.75a.89.89,0,0,1,.25.14l8.11,3.19a1,1,0,0,1-.36,1.94"/><path class="cls-4" d="M101.51,90.8c-2.76-1-5.6-6-6.94-12.34-1.42-6.66-.47-12.89,2-14.54l-7.32,7.25,0,.06c-1.34,1.2-1.73,4.7-.9,8.6s2.62,6.87,4.32,7.48l-.06,0,9,3.47"/><path d="M93.18,86.5l4,1.56a29.07,29.07,0,0,1-3.61-9.38,27.44,27.44,0,0,1-.41-10l-3.25,3.22-.09.09c-.9.81-1.4,3.76-.57,7.65s2.49,6.32,3.67,6.74A.92.92,0,0,1,93.18,86.5Zm8.33,5.31a1.06,1.06,0,0,1-.34-.06l-.22-.09-8.78-3.39a.76.76,0,0,1-.26-.16c-2-1-3.77-4.13-4.61-8.06-.91-4.28-.46-8,1.15-9.52v0l.06-.05,6.38-6.33a4.61,4.61,0,0,1,1.08-1,1,1,0,0,1,1.26,1.55l-.84.84c-1.42,2-2.09,6.94-.85,12.78,1.39,6.49,4.11,10.66,6.14,11.54l.18.06a1,1,0,0,1-.36,2"/><path class="cls-1" d="M118.63,92.72l.76,0c-4.16-.26-8.74-7.91-10.81-17.57-2.1-9.86-.58-18.72,3.29-20.39l-.52.31L96.58,63.9c-2.47,1.59-3.44,7.86-2,14.57C96,84.94,99,90.1,101.82,90.86l16.81,1.86"/><path d="M102,89.87l12.8,1.42c-3.24-3.39-5.89-9.7-7.21-15.89-1.43-6.72-1.24-13,.29-17.06l-10.8,6.42c-1.86,1.2-2.94,6.93-1.54,13.49C97,85,99.94,89.24,102,89.87Zm17.39,3.9h-.13l-.71,0h0l-16.81-1.86-.15,0c-3.23-.87-6.51-6.28-8-13.15C92.07,71.52,93.09,65,96,63.05l14.47-8.6a5,5,0,0,1,1-.57,1,1,0,0,1,1.3.47,1,1,0,0,1-.39,1.32l-.77.46c-2.6,2.07-4.06,9.39-2,18.86,2.17,10.21,6.7,16.53,9.85,16.77h0a1,1,0,0,1-.06,2"/><path d="M189.33,45.48c-2.78.58-4,6.46-2.48,13.07,2.58,11.08,7,11.08,7.57,11,0,0,0,0,0,0l-11,4.76a105.59,105.59,0,0,1-4.07-14.29A105.39,105.39,0,0,1,177.35,46l12-.48"/><path d="M178.44,46.93a104.53,104.53,0,0,0,1.95,12.93A103.61,103.61,0,0,0,184.07,73l7.58-3.3c-1.86-1.24-4.2-4.14-5.77-10.94-1.12-4.81-.86-9.54.65-12.17Zm4.47,28.77-.37-1A109.55,109.55,0,0,1,176.35,46l-.08-1,13-.53.25,2a1.92,1.92,0,0,0-1.17,1c-1.12,1.75-1.72,5.8-.54,10.89,1.95,8.37,5.1,10.37,6.51,10.26l.85-.07.42,1.66-.78.35L182.91,75.7"/><path class="cls-2" d="M51.08,109,48.65,89.49l17,5.25,1.71,11.43a6.56,6.56,0,0,1-1.86,5.23c-2.78,2.92-7.32,3.27-11,1.57l-.84-.4A4.58,4.58,0,0,1,51.08,109"/><path d="M49.84,90.9l2.24,18a3.55,3.55,0,0,0,2,2.78l.85.4c3.47,1.62,7.51,1.06,9.81-1.36a5.6,5.6,0,0,0,1.6-4.4L64.73,95.51ZM59.1,115a11.83,11.83,0,0,1-5-1.14l-.84-.39a5.54,5.54,0,0,1-3.15-4.35L47.65,89.61a1,1,0,0,1,1.29-1.08l17,5.24a1,1,0,0,1,.7.82L68.34,106a7.58,7.58,0,0,1-2.17,6.11A9.67,9.67,0,0,1,59.1,115"/><path d="M64,60.51c-4.13.92,2.16,3.67-14.13,3.52-6.48-.06-1.49,6.09-3.17,6.08-6.21,0-6,0-8.6,1.49-1.72,1-2,4.78-.9,7.25,1.41,3.25,4.44,3.34,8.91,9.79,3.14,4.53,3.57,7.7,5.78,7.87s3-3,5.43-3c3.18,0,4,5.28,7.5,6.59,2.18.83,6.57.26,12.4-4.94a2.66,2.66,0,0,0,.5-3.34c-.84-1.39-1.9-3.15-3.07-4.74C69.08,79.5,65.53,78.43,66,75.93c.72-3.85,7.62-3.71,7.9-6.78s-4.3-9.89-10-8.64"/><path class="cls-2" d="M53.84,79.13,55.61,81a27.78,27.78,0,0,1,2.32,2.78c1.33,1.84,3.64,5,5.06,6.63,2.1,2.44,10.08-3.51,10.08-3.51L73.12,85l.92-.72a1.24,1.24,0,0,0,.41-.52,1.22,1.22,0,0,0-.35-1.43c-2.19-1.86-6.88-6.11-9.33-10.41a13.6,13.6,0,0,0-10.93,7.22"/><path d="M55.08,79l1.26,1.31a27.54,27.54,0,0,1,2.4,2.88c1.27,1.75,3.6,4.93,5,6.57.84,1,5-1,8.31-3.38l0-1.39a1,1,0,0,1,.39-.77l.92-.72c.06,0,.1-.09.1-.11a.26.26,0,0,0-.06-.29c-2.4-2-6.69-6-9.24-10.12A12.53,12.53,0,0,0,55.08,79Zm9.43,13a2.86,2.86,0,0,1-2.28-.93c-1.46-1.7-3.83-4.93-5.12-6.7a24.55,24.55,0,0,0-2.22-2.67l-1.78-1.85A1,1,0,0,1,53,78.66,14.51,14.51,0,0,1,64.74,70.9a1,1,0,0,1,.9.51c2.42,4.23,7.18,8.5,9.12,10.14a2.25,2.25,0,0,1,.62,2.58,2.4,2.4,0,0,1-.72.94l-.55.42,0,1.41a1.06,1.06,0,0,1-.4.79C72.08,88.86,67.61,92,64.51,92"/><path class="cls-2" d="M57.61,86.27s-4.26-4.45-5.86-2.07,3.22,7.16,5.86,2.07"/><path d="M491.74,70.89a1,1,0,0,1-.72-.31,168.11,168.11,0,0,0-61.76-41.47,1,1,0,0,1-.57-1.29,1,1,0,0,1,1.29-.58,170,170,0,0,1,62.5,42,1,1,0,0,1,0,1.42,1,1,0,0,1-.7.27"/><path d="M510.76,108.42a1,1,0,0,1-.78-.37c-17.78-21.28-46-49.57-79.64-63.5a1,1,0,1,1,.77-1.85c34,14.08,62.49,42.61,80.42,64.06a1,1,0,0,1-.77,1.66"/><path d="M226.12,532.56a219.22,219.22,0,0,1-94.4-21.45,1,1,0,1,1,.87-1.81,215.95,215.95,0,0,0,173.08,5.91,1,1,0,0,1,1.3.56,1,1,0,0,1-.56,1.31,216,216,0,0,1-80.29,15.48"/><path d="M306,517.14a1,1,0,0,1-.37-1.93c1.81-.73,3.64-1.48,5.41-2.25a1,1,0,0,1,.8,1.85c-1.8.77-3.64,1.53-5.47,2.27a1.15,1.15,0,0,1-.37.06"/><path d="M231.23,550.24a250.59,250.59,0,0,1-62.33-7.92,1,1,0,1,1,.5-2c54.08,13.88,111.5,9.08,161.68-13.51a1,1,0,0,1,1.33.5,1,1,0,0,1-.5,1.34,244.47,244.47,0,0,1-78.57,20.55q-11,1-22.11,1"/><path d="M156.08,531.43a4.5,4.5,0,0,0-2.52.77,4.57,4.57,0,0,0-2,2.92,4.62,4.62,0,1,0,5.46-3.59A5.11,5.11,0,0,0,156.08,531.43Zm0,11.25a6.73,6.73,0,0,1-1.33-.13,6.63,6.63,0,1,1,7.83-5.16,6.65,6.65,0,0,1-6.5,5.29"/><path d="M319.13,506.92l2.63,5.46,4.7-4.92Zm2.35,8.21h-.15a1,1,0,0,1-.75-.56l-4-8.34a1,1,0,0,1,.08-1,1,1,0,0,1,.91-.43l11.17.83a1,1,0,0,1,.87.64,1,1,0,0,1-.21,1.06l-7.17,7.5a1,1,0,0,1-.73.31"/><path d="M535.22,236.5a1,1,0,0,1-1-1v-5.19a1,1,0,1,1,2,0v5.19a1,1,0,0,1-1,1"/><path d="M535.22,248.6a1,1,0,0,1-1-1v-5.2a1,1,0,0,1,2,0v5.2a1,1,0,0,1-1,1"/><path d="M531.78,240h-5.2a1,1,0,0,1-1-1,1,1,0,0,1,1-1h5.2a1,1,0,0,1,1,1,1,1,0,0,1-1,1"/><path d="M543.88,240h-5.2a1,1,0,0,1,0-2h5.2a1,1,0,0,1,0,2"/><path d="M14.47,433.43a1,1,0,0,1-1-1v-5.19a1,1,0,1,1,2,0v5.19a1,1,0,0,1-1,1"/><path d="M14.47,445.53a1,1,0,0,1-1-1v-5.19a1,1,0,1,1,2,0v5.19a1,1,0,0,1-1,1"/><path d="M11,436.88H5.83a1,1,0,1,1,0-2H11a1,1,0,1,1,0,2"/><path d="M23.12,436.88H17.93a1,1,0,1,1,0-2h5.19a1,1,0,1,1,0,2"/><path d="M409.83,259.81a1,1,0,0,1-1-1v-5.2a1,1,0,0,1,2,0v5.2a1,1,0,0,1-1,1"/><path d="M409.83,271.91a1,1,0,0,1-1-1v-5.19a1,1,0,0,1,2,0v5.19a1,1,0,0,1-1,1"/><path d="M406.38,263.26h-5.2a1,1,0,0,1,0-2h5.2a1,1,0,0,1,0,2"/><path d="M418.47,263.26h-5.19a1,1,0,0,1,0-2h5.19a1,1,0,1,1,0,2"/><path d="M26,54.76a1,1,0,0,1-1-1V48.57a1,1,0,1,1,2,0v5.19a1,1,0,0,1-1,1"/><path d="M26,66.86a1,1,0,0,1-1-1V60.67a1,1,0,1,1,2,0v5.19a1,1,0,0,1-1,1"/><path d="M22.55,58.22H17.36a1,1,0,1,1,0-2h5.19a1,1,0,1,1,0,2"/><path d="M34.66,58.22h-5.2a1,1,0,1,1,0-2h5.2a1,1,0,0,1,0,2"/><path d="M539.71,182.38A35.08,35.08,0,1,1,503,149a35.08,35.08,0,0,1,36.73,33.34"/><path class="cls-3" d="M540.12,181.32A34,34,0,1,1,504.47,149a34,34,0,0,1,35.65,32.36"/><path d="M506.16,149.93c-.55,0-1.09,0-1.63,0a33,33,0,1,0,1.63,0ZM506.08,218a35,35,0,1,1,1.73,0c-.58,0-1.15,0-1.73,0"/><path class="cls-2" d="M534.65,181.58a28.56,28.56,0,1,1-29.91-27.15,28.57,28.57,0,0,1,29.91,27.15"/><path d="M530.85,198.26a1,1,0,0,1-.86-1.51,27.48,27.48,0,0,0,2.92-7.28,1,1,0,1,1,2,.47,29.26,29.26,0,0,1-3.14,7.82,1,1,0,0,1-.87.5"/><path d="M531.2,170.27a1,1,0,0,1-.88-.52,27.37,27.37,0,0,0-25.53-14.32,27.64,27.64,0,0,0-21.66,12.34,1,1,0,0,1-1.4.29,1,1,0,0,1-.28-1.39,29.7,29.7,0,0,1,23.25-13.25,29.36,29.36,0,0,1,27.38,15.37,1,1,0,0,1-.39,1.36,1,1,0,0,1-.49.12"/><path d="M506.1,212.54a29.59,29.59,0,0,1-26.45-42.77,1,1,0,0,1,1.34-.45,1,1,0,0,1,.46,1.35,27.56,27.56,0,0,0,26,39.82,1,1,0,1,1,.1,2c-.48,0-1,0-1.45,0"/><path class="cls-4" d="M504.48,203.23l-.22-4.69a19.85,19.85,0,0,1-8.5-1.72L497,191a17.43,17.43,0,0,0,8.3,1.77c2.81-.13,4.69-1.31,4.59-3.29s-1.72-3-5.44-4c-5.37-1.53-9.09-3.82-9.32-8.6-.21-4.35,2.68-7.91,7.92-9.2l-.23-4.69,4.83-.23.22,4.34a17.89,17.89,0,0,1,7.24,1.28L513.9,174a16.43,16.43,0,0,0-7.19-1.33c-3.21.15-4.18,1.58-4.11,3,.08,1.63,1.85,2.58,6.13,4,6,1.79,8.48,4.39,8.69,8.83s-2.72,8.3-8.34,9.56l.24,5-4.84.23"/><path class="cls-2" d="M449.21,187.34a3.28,3.28,0,0,1,3.28,3.27v22.53a3.28,3.28,0,0,1-3.28,3.28H387a3.28,3.28,0,0,1-3.28-3.28V190.61a3.28,3.28,0,0,1,3.28-3.27h62.22"/><path d="M449.21,217.43H387a4.29,4.29,0,0,1-4.28-4.28V190.61a4.28,4.28,0,0,1,4.28-4.28h12.28a1,1,0,0,1,0,2H387a2.27,2.27,0,0,0-2.27,2.27v22.54a2.28,2.28,0,0,0,2.27,2.27h62.22a2.28,2.28,0,0,0,2.27-2.27V190.61a2.27,2.27,0,0,0-2.27-2.27H407.54a1,1,0,1,1,0-2h41.67a4.28,4.28,0,0,1,4.28,4.28v22.54a4.29,4.29,0,0,1-4.28,4.28"/><path class="cls-4" d="M443.41,199.07H394a1,1,0,0,1,0-2h49.45a1,1,0,1,1,0,2"/><path class="cls-4" d="M443.41,205.67H433.07a1,1,0,0,1,0-2h10.34a1,1,0,0,1,0,2"/><path class="cls-4" d="M426.46,205.67H394a1,1,0,0,1,0-2h32.5a1,1,0,1,1,0,2"/><path class="cls-2" d="M408.43,148.8a3.27,3.27,0,0,1,3.28,3.27V174.6a3.28,3.28,0,0,1-3.28,3.28H346.21a3.28,3.28,0,0,1-3.28-3.28V152.07a3.27,3.27,0,0,1,3.28-3.27h62.22"/><path d="M408.43,178.88H346.21a4.28,4.28,0,0,1-4.28-4.28V152.07a4.28,4.28,0,0,1,4.28-4.28h12.27a1,1,0,1,1,0,2H346.21a2.27,2.27,0,0,0-2.27,2.27V174.6a2.27,2.27,0,0,0,2.27,2.27h62.22a2.27,2.27,0,0,0,2.27-2.27V152.07a2.27,2.27,0,0,0-2.27-2.27H366.76a1,1,0,1,1,0-2h41.67a4.28,4.28,0,0,1,4.28,4.28V174.6a4.28,4.28,0,0,1-4.28,4.28"/><path class="cls-4" d="M402.63,160.52H353.18a1,1,0,0,1-1-1,1,1,0,0,1,1-1h49.45a1,1,0,0,1,1,1,1,1,0,0,1-1,1"/><path class="cls-4" d="M402.63,167.12H392.29a1,1,0,0,1,0-2h10.34a1,1,0,1,1,0,2"/><path class="cls-4" d="M385.68,167.12h-32.5a1,1,0,0,1-1-1,1,1,0,0,1,1-1h32.5a1,1,0,0,1,1,1,1,1,0,0,1-1,1"/><path class="cls-3" d="M364.83,338.47H336.49l-41.8-71.42-.08,71.42h-28.5l.14-112.53a2.26,2.26,0,0,1,2.26-2.25h26.23l41.73,71.42.08-69.49a1.92,1.92,0,0,1,1.93-1.93H365l-.13,114.78"/><path class="cls-4" d="M372.37,338.47H344l-41.81-70.85-.07,70.85h-28.5l.14-113.86h28.49L344,295.46l.08-70.85h28.42l-.14,113.86"/><path d="M344,296.46a1,1,0,0,1-.86-.49l-41.44-70.36H274.8L274.72,293a1,1,0,0,1-2,0l.08-68.42a1,1,0,0,1,1-1h28.49a1,1,0,0,1,.87.5L343,291.78l.08-67.17a1,1,0,0,1,1-1h28.42a1,1,0,0,1,.71.3,1,1,0,0,1,.29.71l-.07,56.93a1,1,0,1,1-2,0l.06-55.93H345.1L345,295.46a1,1,0,0,1-.73,1Zm11.53,43H344a1,1,0,0,1-.86-.5l-39.94-67.69-.08,67.18a1,1,0,0,1-1,1h-8.89a1,1,0,0,1,0-2h7.88l.08-69.85a1,1,0,0,1,.74-1,1,1,0,0,1,1.13.46l41.51,70.36h10.93a1,1,0,0,1,0,2"/><path class="cls-3" d="M137.66,279.12h19.4q8.73,0,13.15-4.45t4.43-12.45q0-8-4.45-12.53t-13.1-4.55H137.7ZM154.23,302H137.64l-.06,43.64H108.27a1.35,1.35,0,0,1-1.35-1.34l.14-120.52a1.52,1.52,0,0,1,1.52-1.52h48.54q22.62,0,35.37,9.74t12.72,27.51q0,12.87-5.4,21.33T183,294.56l26.5,49.81v1.27H176.63L154.23,302"/><path class="cls-4" d="M145.88,278.73h19.4q8.73,0,13.15-4.42t4.42-12.37q0-7.94-4.44-12.44T165.31,245H145.92Zm16.57,22.72h-16.6l0,43.35H115.14l.15-122.54h50.05q22.62,0,35.37,9.67t12.72,27.32q0,12.78-5.4,21.19T191.2,294.06l26.5,49.47v1.27H184.85l-22.4-43.35"/><path d="M146.89,277.73h18.39c5.51,0,9.7-1.39,12.43-4.14s4.13-6.66,4.14-11.65-1.39-8.94-4.15-11.73S170.77,246,165.31,246H146.92Zm18.39,2h-19.4a1,1,0,0,1-1-1l0-33.75a1,1,0,0,1,1-1h19.39c6,0,10.67,1.62,13.82,4.82s4.73,7.6,4.72,13.15-1.59,9.93-4.71,13.06S171.35,279.74,165.28,279.74Zm19.57,66.06a1,1,0,0,1-.89-.54l-22.12-42.8h-15l0,42.34a1,1,0,0,1-1,1H115.14a1,1,0,0,1-.71-.29,1,1,0,0,1-.29-.71l.14-122.54a1,1,0,0,1,1-1h50.05c15.24,0,27.34,3.32,36,9.87s13.13,16.08,13.11,28.12c0,8.68-1.88,16-5.55,21.73-3.53,5.5-9,10-16.29,13.54l9.25,17.28a1,1,0,1,1-1.77.95l-9.75-18.22a1,1,0,0,1-.07-.8,1,1,0,0,1,.54-.59c7.41-3.38,12.93-7.83,16.4-13.25s5.23-12.35,5.24-20.64c0-11.38-4.14-20.3-12.33-26.52s-20-9.46-34.76-9.46h-49l-.14,120.52H144.8l0-42.34a1,1,0,0,1,1-1h16.6a1,1,0,0,1,.89.54l22.4,43.34a1,1,0,0,1-.43,1.36,1.07,1.07,0,0,1-.46.11"/><path class="cls-3" d="M249.81,242.44a1.66,1.66,0,0,1,0-1.77,4.36,4.36,0,0,0,.74-2.38c0-3.88-5.63-7-12.57-7s-12.57,3.15-12.57,7a4.36,4.36,0,0,0,.74,2.38,1.66,1.66,0,0,1,0,1.77,4.33,4.33,0,0,0-.74,2.38c0,1.83,1.27,3.51,3.34,4.76a2.73,2.73,0,0,0-.07.64c0,2.87,4.16,5.2,9.3,5.2s9.3-2.33,9.3-5.2a2.73,2.73,0,0,0-.07-.64c2.08-1.25,3.34-2.93,3.34-4.76a4.33,4.33,0,0,0-.74-2.38"/><path d="M238,232.27c-6.27,0-11.57,2.76-11.57,6a3.4,3.4,0,0,0,.58,1.83,2.64,2.64,0,0,1,0,2.86,3.43,3.43,0,0,0-.58,1.84c0,1.4,1,2.79,2.86,3.9l.61.38-.15.7a2.18,2.18,0,0,0,0,.42c0,2,3.41,4.2,8.3,4.2s8.3-2.22,8.3-4.2a2.18,2.18,0,0,0-.05-.42l-.15-.7.61-.38c1.85-1.11,2.86-2.5,2.86-3.9A3.43,3.43,0,0,0,249,243a2.64,2.64,0,0,1,0-2.86,3.4,3.4,0,0,0,.58-1.83C249.55,235,244.25,232.27,238,232.27Zm0,24.15c-5.78,0-10.31-2.72-10.31-6.2v-.13c-2.11-1.45-3.27-3.3-3.27-5.27a5.41,5.41,0,0,1,.9-2.93.6.6,0,0,0,0-.68,5.38,5.38,0,0,1-.9-2.92c0-4.5,6-8,13.58-8s13.58,3.53,13.58,8a5.38,5.38,0,0,1-.9,2.92.64.64,0,0,0,0,.68,5.41,5.41,0,0,1,.9,2.93c0,2-1.16,3.82-3.27,5.27v.13c0,3.48-4.53,6.2-10.31,6.2"/><path class="cls-2" d="M272.1,184.44c0-19.9-15.51-36.87-34.14-36.87S204,164.08,203.9,183.94c-.06,10.11,4.51,19.51,10.74,26.1A38.08,38.08,0,0,1,224,227.21l.08.32a13.66,13.66,0,0,0,13,10.77h2.52a13.66,13.66,0,0,0,13-10.77l.05-.19a37.34,37.34,0,0,1,9.22-17.12,37.17,37.17,0,0,0,10.17-25.78"/><path d="M238,148.57c-18.11,0-32.93,15.87-33.05,35.37a37.2,37.2,0,0,0,10.45,25.4A39.15,39.15,0,0,1,225,227l.08.31a12.65,12.65,0,0,0,12,10h2.53a12.66,12.66,0,0,0,12.06-10l0-.19a38.55,38.55,0,0,1,9.47-17.58,36,36,0,0,0,9.9-25.09C271.1,165,255.92,148.57,238,148.57Zm1.67,90.73H237.1a14.67,14.67,0,0,1-14-11.54l-.07-.31a37.32,37.32,0,0,0-9.11-16.72,39.25,39.25,0,0,1-11-26.8c.13-20.6,15.86-37.37,35.06-37.37s35.15,17.34,35.15,37.87a38,38,0,0,1-10.46,26.48,36.4,36.4,0,0,0-9,16.67l-.05.19a14.67,14.67,0,0,1-14,11.53"/><path d="M243.3,178.5a6.47,6.47,0,0,0-1,1.39c-1.78,3.35-2.09,6.24-.86,7.91a2.79,2.79,0,0,0,2.71,1.15,2,2,0,0,0,1.62-1.53C246.62,184.31,245.29,180.72,243.3,178.5Zm-10,.29a14.88,14.88,0,0,0-2.31,4.93c-.7,2.45-.47,4.45.63,5.52a2.16,2.16,0,0,0,2.16.54,3.5,3.5,0,0,0,2.1-2.92C236.28,184.6,235.19,180.26,233.27,178.79Zm6.61,55.35h0a1,1,0,0,1-1-1c.07-19.44,10.69-41.38,12.82-45.58,1.24-2.44,1.72-4.43,1.45-6.08-.38-2.41-1.52-4-3.38-4.6a6.68,6.68,0,0,0-4.88.4c2.32,2.67,3.86,6.85,2.84,10.67a4,4,0,0,1-3.19,3,4.81,4.81,0,0,1-4.7-1.94c-1-1.36-2.24-4.48.71-10a8.51,8.51,0,0,1,1.24-1.78,6.32,6.32,0,0,0-5.5-.72,5.71,5.71,0,0,0-1.61.9c2.53,2.16,3.67,7.08,3.14,9.89a5.4,5.4,0,0,1-3.47,4.46,4.11,4.11,0,0,1-4.16-1c-1.64-1.6-2.07-4.33-1.16-7.5a17.29,17.29,0,0,1,2.32-5.17,6.15,6.15,0,0,0-3.94.26,4.5,4.5,0,0,0-2.43,2.4,7.58,7.58,0,0,0,.78,6.72c3.13,4.76,10.43,18.67,10.79,44.85a1,1,0,0,1-2,0c-.35-25.65-7.43-39.16-10.46-43.78a9.48,9.48,0,0,1-1-8.53,6.5,6.5,0,0,1,3.5-3.53,8.36,8.36,0,0,1,6.19-.09,8.1,8.1,0,0,1,2.81-1.78,8.32,8.32,0,0,1,7.35,1l.41.29a8.54,8.54,0,0,1,7.06-.86c2.59.89,4.22,3,4.72,6.18.33,2.11-.19,4.44-1.65,7.31-2.09,4.13-12.54,25.68-12.61,44.68a1,1,0,0,1-1,1"/><path d="M253.61,208.05a1,1,0,0,1-.56-1.84,28.59,28.59,0,0,0,11.78-17.86,1,1,0,0,1,2,.41,30.58,30.58,0,0,1-12.63,19.11,1,1,0,0,1-.56.18"/><path d="M216.89,203.87a1,1,0,0,1-.78-.36A31.48,31.48,0,0,1,209,183.42c0-11.58,6-22,15.77-27.14a1,1,0,0,1,1,1.78c-9.07,4.8-14.71,14.52-14.71,25.36a29.41,29.41,0,0,0,6.69,18.8,1,1,0,0,1-.13,1.42,1,1,0,0,1-.64.23"/><path class="cls-2" d="M240.13,243.06a1,1,0,0,1-.18-2,29.85,29.85,0,0,0,3.26-.79,1,1,0,0,1,1.25.68,1,1,0,0,1-.67,1.25,31,31,0,0,1-3.48.84l-.18,0"/><path class="cls-2" d="M234.83,250a1,1,0,0,1-1-1,1,1,0,0,1,1-1,22.49,22.49,0,0,0,9.6-2.07,1,1,0,1,1,.9,1.8A24.64,24.64,0,0,1,234.83,250h0"/><path d="M238.15,139.9h0a1,1,0,0,1-1-1l.3-15.91a1,1,0,0,1,2,0l-.3,15.92a1,1,0,0,1-1,1"/><path d="M195,172.31h-9.52a1,1,0,0,1,0-2H195a1,1,0,0,1,0,2"/><path d="M203.74,151.07a1.07,1.07,0,0,1-.51-.13l-10.72-6.21a1,1,0,1,1,1-1.74l10.73,6.21a1,1,0,0,1-.5,1.87"/><path d="M281,172.31a1,1,0,1,1,0-2h9.52a1,1,0,0,1,0,2H281"/><path d="M272.22,151.07a1,1,0,0,1-.51-1.87L282.45,143a1,1,0,0,1,1,1.74l-10.73,6.21a1,1,0,0,1-.5.13"/><path class="cls-2" d="M291.67,44.79a19.47,19.47,0,0,1-.25-27.45,19.37,19.37,0,1,1,.25,27.45"/><path d="M305.22,12.54H305a18.13,18.13,0,0,0-12.9,5.51,18.47,18.47,0,0,0,.24,26,18.25,18.25,0,0,0,25.9-.24,18.47,18.47,0,0,0-.23-26A18.14,18.14,0,0,0,305.22,12.54Zm0,38.81A20.18,20.18,0,0,1,291,45.5a20.5,20.5,0,0,1-.26-28.86,20.29,20.29,0,0,1,28.76-.27,20.51,20.51,0,0,1,.26,28.87,20.15,20.15,0,0,1-14.32,6.11h-.19"/><path class="cls-4" d="M301.64,37.57l-1.21-11.89a.82.82,0,0,1,1.11-.85L314,29.47a.83.83,0,0,1,.16,1.47l-11.29,7.23a.82.82,0,0,1-1.27-.6"/><path class="cls-2" d="M229.43,30.94A20.1,20.1,0,1,1,249.53,51a20.1,20.1,0,0,1-20.1-20.1"/><path d="M249.53,11.85a19.1,19.1,0,1,0,19.1,19.09A19.11,19.11,0,0,0,249.53,11.85Zm0,40.2a21.11,21.11,0,1,1,21.11-21.11,21.13,21.13,0,0,1-21.11,21.11"/><path class="cls-4" d="M255,33a3.48,3.48,0,0,0-2.77,1.37l-6.78-2.64c0-.09,0-.18,0-.26a3.9,3.9,0,0,0,0-.5l7-3.22a3.52,3.52,0,1,0-.89-2.33,2.63,2.63,0,0,0,.05.49l-7,3.22a3.48,3.48,0,0,0-2.61-1.21,3.54,3.54,0,1,0,2.76,5.69l6.78,2.65a2.28,2.28,0,0,0,0,.26A3.51,3.51,0,1,0,255,33"/><path class="cls-2" d="M339.26,45.12A19.68,19.68,0,1,1,357.9,65.78a19.68,19.68,0,0,1-18.64-20.66"/><path d="M358.91,27.45a18.67,18.67,0,0,0-1,37.32,18.67,18.67,0,0,0,1.92-37.29Zm0,39.36-1.08,0a20.83,20.83,0,1,1,1.08,0"/><path class="cls-4" d="M358.52,56a.64.64,0,0,1-.64,0c-1.69-1.06-9.47-6.31-8.83-12.63.67-6.67,7.88-5.14,9.5-1.75a.37.37,0,0,0,.34.21.38.38,0,0,0,.33-.21,5.14,5.14,0,0,1,6.53-2.32c3.13,1.36,6,9.45-7.23,16.72"/><path class="cls-3" d="M328.88,400.72,271.27,418a4,4,0,0,0-1.74,6.52l9.4,10-32.24,30.74a8.41,8.41,0,0,1-11.92-.31L221.1,450.48a33,33,0,0,0-46.78-1.2l-27.1,25.84a4.86,4.86,0,0,0,0,7.05c4.31,4.05,8.71,8.29,13.07,12.52a4.84,4.84,0,0,0,6.73,0l24.17-23.14a8.41,8.41,0,0,1,11.9.29l13.81,14.49a33,33,0,0,0,46.71,1.12L298,454.7l9.9,10.51a3.94,3.94,0,0,0,6.59-1.44l19.79-57.39a4.4,4.4,0,0,0-5.41-5.66"/><path class="cls-3" d="M32.92,333.49H49.51q10.43-.09,14.88-3.7t4.45-10.66q0-8.1-4.79-11.67t-15.5-3.57H33Zm0,20.2,0,30.65H53.71q8.63,0,13.25-3.82t4.63-10.76q0-16-16.39-16.07ZM1.16,281.25a1.06,1.06,0,0,1,1.06-1.07H48.58q25.47,0,38.75,9t13.25,26.26q0,9.93-4.73,16.95T82,342.8q10.33,2.64,15.86,9.83t5.51,17.57q0,18.8-12.32,28.24t-36.42,9.61H1l.15-126.8"/><path class="cls-4" d="M41.5,333.2H58.09q10.44-.09,14.88-3.68t4.46-10.6q0-8.06-4.79-11.61t-15.5-3.55H41.54Zm0,20.09,0,30.49H62.3q8.61,0,13.24-3.8t4.64-10.7q0-15.9-16.4-16ZM9.59,407.36l.15-127.18H57.16q25.49,0,38.75,9t13.26,26.12a29.47,29.47,0,0,1-4.74,16.85,27.4,27.4,0,0,1-13.88,10.31q10.33,2.63,15.85,9.78t5.51,17.48q0,18.69-12.32,28.08t-36.41,9.56H9.59"/><path d="M42.51,332.2H58.09c6.68-.06,11.48-1.22,14.25-3.46s4.08-5.42,4.08-9.82c0-5-1.47-8.65-4.38-10.8s-8-3.35-14.9-3.35H42.54Zm-1,2a1,1,0,0,1-1-1l0-29.44a1,1,0,0,1,1-1h15.6c7.31,0,12.72,1.26,16.09,3.74s5.21,6.74,5.2,12.42c0,5-1.63,8.8-4.83,11.39s-8.25,3.83-15.5,3.9Zm1,48.56H62.3c5.48,0,9.72-1.2,12.6-3.57s4.27-5.6,4.27-9.92c0-10-5-14.93-15.39-15H42.48Zm19.85,2H41.44a1,1,0,0,1-.71-.3,1,1,0,0,1-.29-.71l0-30.49a1,1,0,0,1,1-1h22.3c11.56.06,17.41,5.78,17.4,17,0,4.9-1.69,8.76-5,11.47S68.25,384.79,62.3,384.79ZM10.59,406.36H63.18C79,406.24,91,403.1,99,397s11.91-15.21,11.93-27.29c0-6.61-1.78-12.28-5.31-16.85s-8.67-7.74-15.3-9.42a1,1,0,0,1-.76-.93,1,1,0,0,1,.66-1,26.45,26.45,0,0,0,13.4-9.92,28.63,28.63,0,0,0,4.56-16.3c0-11-4.3-19.51-12.81-25.28s-21.49-8.82-38.19-8.82H10.74Zm-1,2a1,1,0,0,1-1-1l.15-127.18a1,1,0,0,1,1-1H57.16c17.11,0,30.34,3.09,39.31,9.17s13.71,15.24,13.7,27a30.61,30.61,0,0,1-4.9,17.41,27.54,27.54,0,0,1-11.68,9.6,27.91,27.91,0,0,1,13.61,9.32c3.8,4.94,5.73,11,5.72,18.09,0,12.73-4.29,22.45-12.72,28.88s-20.79,9.65-37,9.77H9.59"/><path class="cls-3" d="M222.56,344h26.51l-13.24-41.81Zm33.61,22.44H215.42l-7.14,22.51H177.94a1,1,0,0,1-.92-1.33l44.54-118.35a1.34,1.34,0,0,1,1.25-.86h27l45.43,120.54H264.05a1,1,0,0,1-.93-.68l-6.95-21.83"/><path class="cls-4" d="M230.49,344H257l-13.25-41.22Zm33.6,22.11H223.35l-7.14,22.19H184.44l45.38-118.8h27.95l45.43,118.8H271.27l-7.18-22.19"/><path d="M231.87,342.94h23.76L243.76,306ZM257,345H230.49a1,1,0,0,1-.81-.41,1,1,0,0,1-.14-.91l13.26-41.2a1,1,0,0,1,1.91,0L258,343.64A1,1,0,0,1,257,345Zm15,42.3h29.75l-44.66-116.8H230.51l-44.6,116.8h29.56l6.92-21.5a1,1,0,0,1,1-.7h40.74a1,1,0,0,1,1,.7Zm31.21,2H271.27a1,1,0,0,1-1-.7l-6.95-21.5H224.08l-6.91,21.5a1,1,0,0,1-1,.7H184.44a1,1,0,0,1-.93-1.37l45.37-118.81a1,1,0,0,1,.94-.64h27.95a1,1,0,0,1,.94.64l45.43,118.81a1,1,0,0,1-.94,1.37"/><path class="cls-3" d="M387.52,314.37l-.09,71.56h9.9q12.27,0,18.85-8.41t6.6-25v-4.93q0-16.5-6.55-24.87t-19.15-8.37Zm-28.6,90.07.13-109.89a1.37,1.37,0,0,1,1.37-1.37h36.7A57.68,57.68,0,0,1,425.28,300a48.92,48.92,0,0,1,19.5,19.32,56.54,56.54,0,0,1,7.07,28v5.24a56.85,56.85,0,0,1-6.89,28A49.29,49.29,0,0,1,425.61,400a56.57,56.57,0,0,1-27.81,7.08H361.52a2.61,2.61,0,0,1-2.6-2.61"/><path class="cls-4" d="M396.46,313.7l-.08,71.55h9.9q12.25,0,18.84-8.4t6.6-25v-4.92q0-16.5-6.55-24.87T406,313.7Zm-28.61,92.67L368,292.51h38.07a57.62,57.62,0,0,1,28.16,6.84,48.85,48.85,0,0,1,19.5,19.32,56.53,56.53,0,0,1,7.07,27.95v5.24a57.1,57.1,0,0,1-6.89,28,49.32,49.32,0,0,1-19.35,19.4,56.51,56.51,0,0,1-27.81,7.07H367.85"/><path d="M397.38,384.25h8.9c7.8,0,13.88-2.69,18.05-8s6.38-13.6,6.39-24.37v-4.92c0-10.72-2.12-18.88-6.33-24.25s-10.33-8-18.35-8h-8.58Zm8.9,2h-9.9a1,1,0,0,1-.72-.3,1,1,0,0,1-.29-.71l.08-71.55a1,1,0,0,1,1-1H406c8.67,0,15.38,2.94,19.93,8.75s6.78,14.31,6.76,25.49v4.92c0,11.23-2.31,19.85-6.82,25.61S414.73,386.26,406.28,386.26Zm-38.43,21.11a1,1,0,0,1-.71-.29,1,1,0,0,1-.29-.71L367,292.51a1,1,0,0,1,1-1h38.07a65.67,65.67,0,0,1,12.72,1.21,1,1,0,0,1,.79,1.18,1,1,0,0,1-1.18.79,64,64,0,0,0-12.33-1.17H369l-.13,111.85h37.88a55.6,55.6,0,0,0,27.32-6.94,48.62,48.62,0,0,0,14.28-12,1,1,0,0,1,1.42-.15,1,1,0,0,1,.15,1.41A50.63,50.63,0,0,1,435,400.17a57.56,57.56,0,0,1-28.3,7.2H367.85"/><path d="M479.6,240.47a21.11,21.11,0,0,1,20.76-5.79c8.15,2.23,12.25,9.28,15.16,14.25,5.12,8.79,2.64,12,6.67,17.07,7.13,9.05,19.55,2,28,8.93,20.23,16.68-15.44,57.68-33.37,70.69-12,8.69-18.38-5.45-22.81-6.81-13.43-4.15-16-15.49-18.19-34.89-1.45-13.05,11.87-23.51,4.72-34.38-1.82-2.77-3.34-3.52-4.69-7-2.19-5.62-2.69-15.09,3.78-22.09"/><path class="cls-4" d="M456.6,320.88s10.94-30.3,23.2-33.21l-6.24,42.93-17-9.72"/><path class="cls-3" d="M553.44,322.94c-1.51-5.17-3.4-11.38-5.05-15.87-5.65-15.38-17.34-18.82-21.9-19.92-.72-.17-8.83-1.24-8.83-1.24h0a65,65,0,0,0-36.49,1.24,16.44,16.44,0,0,0-11.29,13.74l-13.7,78.9c-.68,5.73,7,11.31,12.39,13.35,5.64,2.15,14.17,4.17,26.24,4.17,12.95,0,28.58-.08,33.83-2.38l.47-.21A17.74,17.74,0,0,0,539.18,377l-2.79-11.59A153.75,153.75,0,0,1,532.31,337l11.08,4.53,5.06-2.94a14.69,14.69,0,0,0,5-15.62"/><path d="M501.73,284.88a66.61,66.61,0,0,0-20.26,3.24A15.44,15.44,0,0,0,470.88,301l-13.7,79c-.61,5.07,6.65,10.32,11.75,12.25,7.16,2.71,15.87,4.09,25.88,4.09,11.23,0,28.21,0,33.43-2.29l.45-.2a16.76,16.76,0,0,0,9.5-16.63l-2.77-11.52A155.68,155.68,0,0,1,531.31,337a1.05,1.05,0,0,1,.42-.87,1,1,0,0,1,1-.11l10.62,4.35,4.57-2.67a13.61,13.61,0,0,0,4.59-14.51c-2-6.77-3.66-12.09-5-15.8-3.8-10.34-10.93-16.82-21.19-19.28-.49-.11-5.48-.79-8.6-1.21a.93.93,0,0,1-.24,0A62.35,62.35,0,0,0,501.73,284.88Zm-6.92,113.44c-10.25,0-19.2-1.42-26.59-4.23-5.86-2.21-13.78-8.15-13-14.41l13.72-78.95a17.42,17.42,0,0,1,12-14.53,65.86,65.86,0,0,1,36.93-1.29h0c1.37.17,8.2,1.08,8.93,1.26,11,2.62,18.57,9.53,22.61,20.54,1.38,3.75,3.09,9.12,5.07,15.93a15.63,15.63,0,0,1-5.33,16.69l-.11.09-5.06,2.94a1,1,0,0,1-.89.06l-9.6-3.93a153.45,153.45,0,0,0,4,26.7l2.79,11.59,0,.15a18.8,18.8,0,0,1-10.65,18.7l-.5.22c-5.18,2.27-19.14,2.46-34.23,2.46"/><path d="M533.67,376.19a1,1,0,0,1-.89-.54c-9.25-17.55-37.47-18.26-49.7-15.84-7.73,1.53-15.77,6.7-15.85,6.76a1,1,0,0,1-1.39-.3,1,1,0,0,1,.3-1.39c.34-.23,8.44-5.44,16.55-7,10.1-2,41.3-3.17,51.87,16.87a1,1,0,0,1-.42,1.36,1,1,0,0,1-.47.12"/><path class="cls-2" d="M499.91,345.62l-53.71-.07a3,3,0,0,1-2.87-2.26l-9.11-37.9a3,3,0,0,1,2.88-3.67l53.71.08a3,3,0,0,1,2.87,2.26l9.11,37.9a3,3,0,0,1-2.88,3.66"/><path d="M499.92,344.62h0a1.92,1.92,0,0,0,1.54-.75,2,2,0,0,0,.36-1.67l-9.11-37.91a2,2,0,0,0-1.9-1.48l-53.71-.08h0a1.92,1.92,0,0,0-1.53.75,1.89,1.89,0,0,0-.36,1.67l9.11,37.91a2,2,0,0,0,1.9,1.48Zm0,2h0l-53.7-.08a4,4,0,0,1-3.85-3l-9.12-37.9a4,4,0,0,1,3.85-4.91h0l53.71.08a4,4,0,0,1,3.85,3l9.11,37.9a4,4,0,0,1-3.85,4.91"/><path class="cls-3" d="M463.79,324.39a4,4,0,1,0,2.89-5.05,4.11,4.11,0,0,0-2.89,5.05"/><path class="cls-2" d="M437.37,319.82l.68,2.72a1.88,1.88,0,0,0,2.63,1.24l9.09-4.31a2.22,2.22,0,0,1,3.06,1.3c.86,2.59.14,7.19-11.43,11.88-7.07,2.86-7.32-4.9-6.17-9.63a5.8,5.8,0,0,1,2.14-3.2"/><path d="M436.84,321.83a4.63,4.63,0,0,0-.63,1.42c-.77,3.18-.73,7.1.86,8.47q1.26,1.08,3.95,0c8.17-3.32,12-7.09,10.86-10.63a1.16,1.16,0,0,0-.67-.73,1.23,1.23,0,0,0-1,0l-9.09,4.31a2.89,2.89,0,0,1-4-1.9Zm1.82,12.44a4.3,4.3,0,0,1-2.91-1c-2.46-2.13-2.34-7-1.49-10.46a6.86,6.86,0,0,1,2.54-3.8,1,1,0,0,1,.93-.1,1,1,0,0,1,.61.69l.69,2.73a.88.88,0,0,0,1.22.57l9.09-4.3a3.21,3.21,0,0,1,4.45,1.89c1.1,3.32-.1,8.29-12,13.12a8.46,8.46,0,0,1-3.12.69"/><path class="cls-2" d="M515.78,308.2s24.12,13.59,29.1,17.86,10.36,7.5,3.33,16.79c-6,7.9-16.5.84-35.06-25.78a6.27,6.27,0,0,0-3.79-2.36c-1.85-.41-4.56-1.89-5.8-6.77,0,0-8.8,1.25-9.58-3l13.22-2.1a5.41,5.41,0,0,1,4.84,1.55l3.74,3.85"/><path d="M503.56,306.93a1,1,0,0,1,1,.76c1.09,4.3,3.35,5.66,5,6a7.15,7.15,0,0,1,4.38,2.76c13.24,19,22.61,28.28,28.64,28.4a5.74,5.74,0,0,0,4.81-2.64c5.9-7.82,2.58-10.6-2-14.45l-1.17-1c-4.84-4.15-28.69-17.61-28.93-17.74a1.24,1.24,0,0,1-.22-.18l-3.75-3.85a4.42,4.42,0,0,0-3.94-1.27l-11.92,1.9c1.56,1.7,6.2,1.51,8,1.26Zm39.16,40h-.15c-6.81-.13-16.42-9.43-30.25-29.26a5.16,5.16,0,0,0-3.17-1.95c-1.75-.39-4.81-1.77-6.33-6.67-2.42.21-9,.37-9.83-3.94a1,1,0,0,1,.84-1.18L507,301.8a6.45,6.45,0,0,1,5.72,1.85l3.64,3.74c2.09,1.19,24.28,13.74,29.13,17.9l1.15,1c4.62,3.86,9.4,7.86,2.34,17.2a7.73,7.73,0,0,1-6.3,3.44"/><path class="cls-2" d="M491,272.46a3.37,3.37,0,0,1-3.9-.66,19.34,19.34,0,0,1-2.85-3.65l-1.48,0a.86.86,0,0,1-.88-.83l-.26-5.75a10.65,10.65,0,0,1-1.69-4.68c-.18-2.14,1.73-6,3.66-6.92,2.61-1.28,7.33-2,9.8,1.74,1.05,1.59,2.77,2.73,3.81,2.55s1.39-1,1.87-1.89c.9-1.61,3.14-3.13,5.28-.57s.67,5-.68,6.95c-.54.8,0,3,.27,4l3.18,13.58a10.81,10.81,0,0,0,6.66,7.63l3.41,1.3s-3.76,11.44-18.85,11.11c-11.51-.24-10.63-9.69-10.63-9.69l1.51-.67a9.05,9.05,0,0,0,5.17-10.27l-1-4.48-2.38,1.2"/><path d="M491,272.45h0Zm-2.29,14.89a8.21,8.21,0,0,0,1.95,5.17c1.64,1.82,4.23,2.79,7.71,2.86,11.87.26,16.31-6.95,17.52-9.53l-2.45-.94a11.79,11.79,0,0,1-7.28-8.34L503,262.76c-.41-1.74-.77-3.52-.06-4.54,1.45-2.15,2.36-3.83.74-5.75a2.21,2.21,0,0,0-1.82-1,2.65,2.65,0,0,0-1.82,1.42l-.09.17a3.63,3.63,0,0,1-2.48,2.21c-1.65.3-3.72-1.31-4.83-3-2.2-3.32-6.53-2.37-8.52-1.4-1.48.72-3.25,4.11-3.1,5.94a9.75,9.75,0,0,0,1.56,4.23,1,1,0,0,1,.14.48l.25,5.63,1.35,0a1.06,1.06,0,0,1,.87.48,18.76,18.76,0,0,0,2.7,3.47,2.38,2.38,0,0,0,2.74.45l2.38-1.19a1,1,0,0,1,1.44.68l1,4.47a10.08,10.08,0,0,1-5.74,11.42Zm10.26,10h-.64c-4.07-.09-7.17-1.28-9.19-3.55a10.29,10.29,0,0,1-2.42-7.24,1,1,0,0,1,.59-.83l1.51-.67a8,8,0,0,0,4.6-9.13l-.73-3.23-1.24.62a4.35,4.35,0,0,1-5.06-.84,20.82,20.82,0,0,1-2.69-3.34l-.9,0a1.86,1.86,0,0,1-1.91-1.8l-.25-5.49A11.66,11.66,0,0,1,479,257c-.2-2.45,1.81-6.73,4.22-7.91,3.52-1.72,8.49-1.79,11.07,2.09a4.42,4.42,0,0,0,2.81,2.12c.4-.08.62-.41,1.07-1.22l.09-.16a4.61,4.61,0,0,1,3.39-2.45,4,4,0,0,1,3.55,1.71c2.73,3.24.63,6.32-.62,8.16-.11.22-.14.9.36,3l.05.22,3.18,13.58A9.81,9.81,0,0,0,514.2,283l3.41,1.31a1,1,0,0,1,.59,1.25c0,.12-4.06,11.8-19.19,11.8"/><path class="cls-2" d="M491.82,509.13l8,23.86s-8.71-.74-9.54-.57-11-21.77-11-21.77l12.56-1.52"/><path d="M490.18,531.42h0Zm.56,0c1.55,0,5.13.28,7.64.48l-7.25-21.64-10.39,1.25c4.12,8.82,8.7,18.16,9.92,19.91Zm9.08,2.61h-.09c-4.08-.35-8.68-.67-9.28-.6-.94.19-1.26.25-6.9-11.36-2.63-5.41-5.18-10.91-5.21-11a1,1,0,0,1,.79-1.43l12.57-1.52a1,1,0,0,1,1.08.68l8,23.87a1,1,0,0,1-.95,1.32"/><path class="cls-3" d="M498,527.75s-12-4.93-14.26,1.26c-2.82,7.87-7.25,19.88-7.25,19.88a3.38,3.38,0,0,0,2.91,4.5c4.4.35,10.95.64,14-.43,4.82-1.69,12.82-17,12.82-17l-2.47-13s-4.36-.62-5.76,4.73"/><path d="M489.44,526.89a7.54,7.54,0,0,0-2.93.51,3.29,3.29,0,0,0-1.83,2c-2.79,7.78-7.21,19.77-7.25,19.89a2.37,2.37,0,0,0,2,3.15c6.57.53,11.39.39,13.6-.38,3.56-1.25,9.78-11.8,12.1-16.17L502.92,524c-1.09.1-3.11.74-4,4a1,1,0,0,1-.52.65,1,1,0,0,1-.83,0A26.17,26.17,0,0,0,489.44,526.89Zm-3,27.82c-2.41,0-4.95-.14-7.15-.32a4.37,4.37,0,0,1-3.77-5.84c0-.12,4.45-12.1,7.25-19.88a5.23,5.23,0,0,1,2.91-3.1c3.64-1.62,9.34.06,11.65.87a6.28,6.28,0,0,1,6.54-4.42,1,1,0,0,1,.85.81l2.47,13a1.06,1.06,0,0,1-.1.65c-.84,1.6-8.33,15.66-13.38,17.43a24.12,24.12,0,0,1-7.27.81"/><path d="M491.92,549.2H479.56a1,1,0,0,1,0-2h12.36a1,1,0,0,1,0,2"/><path class="cls-2" d="M514.5,515l-2.71,24-10.94-3,.84-21.63,12.81.62"/><path d="M501.89,535.24l9,2.48L513.39,516l-10.73-.52Zm9.9,4.77a1.17,1.17,0,0,1-.27,0l-10.93-3a1,1,0,0,1-.74-1l.84-21.63a1,1,0,0,1,1.05-1l12.81.62a1,1,0,0,1,.72.35,1,1,0,0,1,.23.77l-2.72,24a1,1,0,0,1-1,.89"/><path class="cls-3" d="M512.82,556.69h-17.3a3.84,3.84,0,0,1-3.8-4.39c.58-3.91,2.46-10.39,8.1-19.31a3.39,3.39,0,0,1,2.85-1.56h5.26a1.78,1.78,0,0,1,1.76,1.59l.39,3.8,1.6-1.64a1.19,1.19,0,0,1,2,.45,60.7,60.7,0,0,1,3,17.15,3.84,3.84,0,0,1-3.84,3.91"/><path d="M502.67,532.44a2.36,2.36,0,0,0-2,1.1c-5.56,8.78-7.39,15.13-7.95,18.9a2.82,2.82,0,0,0,2.8,3.24h17.3a2.82,2.82,0,0,0,2.83-2.88A58.82,58.82,0,0,0,512.71,536a.15.15,0,0,0-.13-.12.19.19,0,0,0-.18,0l-1.6,1.63a1,1,0,0,1-1,.25,1,1,0,0,1-.68-.84l-.39-3.8a.76.76,0,0,0-.77-.68Zm10.15,25.26h-17.3a4.84,4.84,0,0,1-3.67-1.69,4.79,4.79,0,0,1-1.12-3.86c.59-4,2.49-10.6,8.24-19.69a4.37,4.37,0,0,1,3.7-2h5.25a2.78,2.78,0,0,1,2.77,2.49l.17,1.66.09-.1a2.21,2.21,0,0,1,3.68.84,61.73,61.73,0,0,1,3,17.44,4.87,4.87,0,0,1-4.84,4.94"/><path d="M513,553.56H495.5a1,1,0,1,1,0-2H513a1,1,0,0,1,0,2"/><path d="M473.44,370.82A4,4,0,0,1,476,368.5,61.68,61.68,0,0,1,527,375.85a4.06,4.06,0,0,1,1.84,3.11c.82,11.53,3.88,71.85-15.2,143.26l-12.85-.92-2.62-122.1s-19,44.76-3.55,116l-13.37,2.47s-19.56-25.72-23.07-65c-3.09-34.77,11.76-73.38,15.22-81.82"/><path class="cls-1" d="M510.41,466a1,1,0,0,1-.05-2c10.54-.45,11.79-15.32,11.8-15.47a1,1,0,0,1,1.08-.93,1,1,0,0,1,.93,1.08c0,.17-1.4,16.8-13.72,17.33h0"/><path class="cls-1" d="M497.09,411.4h0a1,1,0,0,1-1-1l.34-11.6a5.8,5.8,0,0,0-2.47-4.94l-5-3.51a1,1,0,0,1,1.15-1.65l5,3.52a7.8,7.8,0,0,1,3.32,6.64l-.34,11.6a1,1,0,0,1-1,1"/></g></g></svg>